<svg xmlns="http://www.w3.org/2000/svg" xmlns:xlink="http://www.w3.org/1999/xlink" version="1.1" id="Layer_2" x="0px" y="0px" style="enable-background:new 0 0 2000 2000;" xml:space="preserve" viewBox="412 881.59 1235.8 206.91">
<style type="text/css">
	.st0{fill:#F05A21;}
	.st1{fill:#FEFBFA;}
</style>
<path class="st0" d="M412,1046.2L458,881.6h98.4c0,0,54-1.5,49,37.5c-4.8,37.5-40,49-51.9,52.6c19.1,1.7,35.5,11.2,39,29.8  c5.4,28.7-24.4,68.2-72.8,72.6c-51.2,4.6-70.3,3.8-70.3,3.8l-0.3-3.4l123.7-34.6l-0.3-2.1l-124.7,30.6l-1.2-3.1l126.9-69l-0.9-1.9  L443,1059.4l-1.9-1.9l150.6-141.6l-1.5-1.5l-155.5,137.8l-1.3-0.6l109.4-159.2l-1.4-1.3l-115.9,157.2l-1.6-0.3l63.7-154.5l-1.7-1.1  l-69.4,154.1L412,1046.2z"/>
<path class="st0" d="M448.9,1088.5c0,0,73.5-0.5,97.9-0.1c36.2,0.6,78.4-16.2,91-42.4c27.5-56.7-30.2-66.4-30.2-66.4  s26-6.6,38.8-23.1c9.1-11.6,25.8-41.6-1.9-57.5c-16.3-9.4-40.3-8.3-40.3-8.3s26.7,6.5,28.2,29.9c1.5,24.6-22.6,47.3-52.2,57.1  c11.7,3.4,36,7,37.4,36.3c1.5,31.7-33.7,69.7-100,69.1c-30.4,2-68.9,3.4-68.9,3.4V1088.5z"/>
<g>
	<path class="st0" d="M1168.6,920.1c158.3,0,316.5,0,474.8-0.1c3.7,0,4.4,1,4.4,4.5c-0.1,41.2-0.1,82.4,0,123.7   c0,2.8-0.6,3.6-3.6,3.6c-317.2-0.1-634.5-0.1-951.7,0c-3,0-3.6-0.8-3.6-3.6c0.1-41.3,0.1-82.7,0-124c0-3.3,0.7-4.2,4.1-4.2   C851.5,920.1,1010,920.1,1168.6,920.1z M831.8,970.9L831.8,970.9c0.1-2-0.7-2.9-3-2.7c-2.8,0.2-5.6,0.2-8.3,0   c-2.3-0.2-3,0.8-3.3,2.9c-0.5,3.4-1.1,6.9-1.7,10.3c-1.7,9.7-3.4,19.4-5.2,29.1c-0.4,2.4,0.1,3.3,2.7,3.1c2.8-0.2,5.6-0.2,8.3,0   c1.9,0.1,2.6-0.5,2.9-2.4c1-6.6,2.2-13.2,3.4-19.8c0.8-4.3,1.6-8.6,2.5-13c0.3-1.4,0.8-2.9,2.7-2.5c1.9,0.4,1,2,1.1,3.1   c0,0.5-0.2,0.9-0.2,1.4c-1.9,10.9-3.8,21.9-5.8,33.2c3.8,0,7.5-0.2,11.2,0.1c2.3,0.1,2.9-0.9,3.2-2.9c0.8-5,1.9-10,2.6-15.1   c1-6.9,2.9-13.6,3.2-20.6c0.2-4.8-2.3-7.3-7.1-7.5C837.3,967.2,834.6,968.9,831.8,970.9z M1431.7,970.9L1431.7,970.9   c0.1-2-0.7-2.9-3-2.7c-2.8,0.2-5.6,0.2-8.3,0c-2.3-0.2-3,0.8-3.3,2.9c-0.5,3.4-1.1,6.9-1.7,10.3c-1.7,9.7-3.4,19.4-5.2,29.1   c-0.4,2.4,0.1,3.3,2.7,3.1c2.8-0.2,5.6-0.2,8.3,0c1.9,0.1,2.6-0.5,2.9-2.4c1-6.6,2.2-13.2,3.4-19.8c0.8-4.3,1.6-8.6,2.5-13   c0.3-1.4,0.8-2.9,2.7-2.5c1.9,0.4,1,2,1.1,3.1c0,0.5-0.2,0.9-0.3,1.4c-1.9,10.9-3.8,21.9-5.8,33.2c3.8,0,7.5-0.2,11.2,0.1   c2.3,0.1,2.9-0.9,3.2-2.9c0.8-5,1.9-10,2.6-15.1c1-6.9,2.9-13.6,3.2-20.6c0.2-4.8-2.3-7.3-7.1-7.5   C1437.2,967.2,1434.4,968.9,1431.7,970.9z M867.4,978.6L867.4,978.6c-0.1-5.9,1.7-11.6,2.6-17.4c0.3-2,0.2-3.1-2.3-2.9   c-2.7,0.2-5.4,0.3-8,0c-2.8-0.3-3.5,0.9-3.9,3.4c-2.8,16.1-5.6,32.2-8.5,48.3c-0.4,2.4-0.3,3.9,2.8,3.5c2.4-0.3,4.9-0.2,7.3,0   c2.3,0.2,3.5-0.3,3.8-3c0.4-4.1,1.5-8.2,2.2-12.2c0.4,0,0.9,0.1,1.3,0.1c0,4.2,0.1,8.5,0,12.7c-0.1,2.1,0.8,2.6,2.7,2.5   c2.7-0.1,5.3-0.1,8,0c2,0.1,2.7-0.5,2.4-2.5c-0.5-4.5-0.5-9.1-1.3-13.5c-1.2-7.2-0.6-13.9,3.5-20.2c1.7-2.7,3.2-5.5,4.1-9   c-3.1,0-5.8,0.1-8.6,0c-1.9-0.1-2.9,0.5-3.8,2.2C870.4,973.2,869.5,976.2,867.4,978.6z M1351.8,994.5c0.2,0,0.4,0.1,0.6,0.1   c-0.3,5.4-0.4,10.7-0.8,16.1c-0.1,2.1,0.3,2.9,2.6,2.8c3.1-0.2,6.3-0.2,9.4,0c2.3,0.2,3.2-0.7,3.8-2.9c3.6-12.4,7.3-24.7,10.9-37   c1.6-5.4,1.6-5.4-4-5.4c-6.4,0-6.4,0-8.3,6.2c-1.6,5.2-3.2,10.4-4.8,15.6c-0.1-4.8,0.1-9.6,0.6-14.3c0.7-7.5,0.8-7.2-6.6-7.6   c-3.6-0.2-5,1-5.8,4.4c-1.5,6.4-3.7,12.6-5.5,18.8c-0.3-5,0-9.8,0.1-14.6c0.3-9.4,0.3-9.3-9.2-8.6c-1.4,0.1-2.1,0.5-2.1,2   c-0.6,13.7-1.2,27.3-1.9,41c-0.1,1.9,0.6,2.3,2.4,2.3c3.4-0.1,6.7-0.2,10.1,0c2.1,0.1,2.8-0.7,3.4-2.5   C1348.2,1005.5,1350,1000,1351.8,994.5z M768.1,983.7c3.9-1.4,6.6-3,7.6-6.5c0.9-3.3,1.4-6.6,1.2-10c-0.3-4.6-2.6-7.1-7.1-8.2   c-4.5-1-9-0.6-13.5-0.6c-3.1,0-6.9-0.9-9.2,0.5c-2.1,1.4-1.5,5.6-2,8.5c-2.6,14.6-5.2,29.2-7.8,43.8c-0.2,1.2-0.6,2.3,1.4,2.3   c8.2-0.3,16.5,0.5,24.7-0.5c4.1-0.5,6.6-3,8-6.8c1.4-4.1,2-8.3,2.6-12.6C774.6,989.2,773.9,985.4,768.1,983.7z M991.7,983.7   c4.5-1.5,7.2-3.5,8-7.3c0.6-2.7,1-5.5,1-8.3c-0.1-5.4-2.4-8.1-7.7-9.1c-7-1.3-14.1-0.4-21.2-0.6c-2-0.1-1.7,1.6-1.9,2.7   c-1.1,5.9-2.1,11.9-3.1,17.8c-1.9,10.7-3.8,21.4-5.7,32.1c-0.2,1-0.9,2.4,1.2,2.4c8.2-0.2,16.5,0.5,24.7-0.5c4.3-0.5,6.9-3,8.2-7   c1.4-4.2,2-8.5,2.6-12.9C998.2,988.8,997.2,985.4,991.7,983.7z M1232.2,983.6c3.8-1.4,6.3-3.6,7.1-7.4c0.6-2.8,1.1-5.7,0.9-8.6   c-0.2-5-2.5-7.7-7.4-8.6c-7.1-1.3-14.3-0.4-21.5-0.6c-1.5-0.1-1.6,1.1-1.7,2.1c-3,17-6,34-9,51c-0.2,1.2-0.2,2,1.4,2   c7.9-0.2,15.8,0.3,23.6-0.3c5.2-0.4,8.2-3.4,9.5-8.3c1-3.8,1.7-7.7,2.2-11.6C1237.9,989,1237.1,985.4,1232.2,983.6z M1111.9,1010.6   c-0.6,2.9,0.9,2.9,2.6,2.8c2.8-0.1,5.6-0.1,8.3,0c2,0.1,2.8-0.5,3.1-2.6c2.7-16.1,5.6-32.2,8.5-48.2c0.8-4.3,0.8-4.3-3.5-4.3   c-3.1,0-7-1-9.1,0.5c-2.2,1.5-1.7,5.8-2.1,8.8c-0.4,3-1.1,2.4-3.1,1.2c-5.8-3.7-14.1-0.7-15.8,5.9c-2.6,10.4-4.4,21.1-5.6,31.8   c-0.5,4.7,2.5,7.6,7.2,7.8C1106,1014.5,1108.8,1013,1111.9,1010.6z M1580.9,1010.6c-0.6,3,0.9,2.9,2.6,2.9c2.8-0.1,5.6-0.1,8.3,0   c2,0.1,2.7-0.5,3.1-2.6c2.7-16.1,5.6-32.2,8.5-48.2c0.8-4.3,0.8-4.3-3.5-4.3c-3.1,0-7-0.9-9.1,0.5c-2.2,1.5-1.7,5.8-2.1,8.8   c-0.4,3.1-1.2,2.3-3.1,1.1c-5.8-3.6-14.1-0.7-15.8,5.9c-2.6,10.4-4.4,21.1-5.6,31.8c-0.5,4.7,2.5,7.6,7.3,7.7   C1574.9,1014.4,1577.7,1013,1580.9,1010.6z M1072.8,1014.3c11.1,0.1,17.3-4.7,19.4-14.9c1.3-6.2,2.3-12.5,3.3-18.8   c0.7-4.4-0.4-8.4-4.4-10.9c-9-5.9-22.9-1.4-26.2,8.9c-2.6,8.2-4,16.7-4.5,25.2c-0.4,6,2.7,9.3,8.6,10.2   C1070.5,1014.2,1072,1014.3,1072.8,1014.3z M1252.6,1014.3c11.1,0.1,17.3-4.7,19.4-14.9c1.3-6.3,2.4-12.7,3.3-19.2   c0.6-4.3-0.6-8.1-4.4-10.6c-9.1-5.8-22.9-1.3-26.2,8.9c-2.6,8.2-4,16.7-4.5,25.2c-0.3,5.9,2.7,9.3,8.6,10.2   C1250.3,1014.2,1251.8,1014.3,1252.6,1014.3z M906.3,1014.3c11.1,0.1,17.3-4.7,19.4-14.9c1.3-6.2,2.3-12.5,3.3-18.8   c0.7-4.4-0.4-8.4-4.4-10.9c-9-5.9-22.9-1.4-26.2,8.9c-2.6,8.2-4,16.7-4.5,25.2c-0.4,6,2.7,9.3,8.6,10.2   C904,1014.2,905.5,1014.3,906.3,1014.3z M798.7,1013.4c1.7,0,3.5,0,5.2,0c1.1,0,1.8-0.3,1.9-1.5c1.8-11.7,4.5-23.2,5.6-35   c0.4-3.9-1.7-6.6-5.2-8.3c-11.8-5.5-25,1.8-26.6,14.5c-0.2,1.7-0.1,2.6,2,2.5c2.8-0.1,5.6-0.1,8.3,0c2,0.1,2.6-0.8,2.8-2.6   c0.2-2.1,0.8-4.1,1.3-6.1c0.3-1,1-1.5,2.1-1.4c0.8,0,1.2,0.4,1.5,1.2c1,3-1.3,8.3-4.3,9.6c-3.2,1.3-6.4,2.7-9.7,3.9   c-3.9,1.4-5.9,4.3-6.6,8.2c-0.4,2.2-0.8,4.3-1,6.5c-0.7,7.1,4.1,10.9,11.1,8.9c2.1-0.6,3.7-3.7,6.5-0.6   C794.5,1014.2,797,1013.4,798.7,1013.4z M1397.8,1013.4C1397.8,1013.4,1397.8,1013.4,1397.8,1013.4c1.7,0,3.5,0,5.2,0.1   c1.2,0,1.9-0.3,2.2-1.6c1.8-11.4,4.4-22.7,5.6-34.3c0.4-4.1-1.4-7-5-8.7c-11.7-5.7-25.4,1.8-26.8,14.6c-0.2,1.5,0,2.4,1.8,2.3   c2.9-0.1,5.8-0.1,8.7,0c1.8,0.1,2.4-0.7,2.6-2.4c0.3-2.1,0.8-4.1,1.2-6.1c0.2-1,0.9-1.6,2-1.6c0.7,0,1.3,0.3,1.6,1   c1.1,2.6-1.1,8.4-3.8,9.5c-3.3,1.4-6.6,2.8-10,4c-4,1.5-6.1,4.4-6.8,8.4c-0.4,2.1-0.7,4.1-1,6.2c-0.8,7.5,4.8,11.6,11.9,8.8   c1.5-0.6,2.9-4.1,5.2-0.4C1392.9,1014.1,1395.9,1013.4,1397.8,1013.4z M1469.7,1013.4c1.6,0,3.2-0.1,4.9,0c1.4,0.1,2.1-0.3,2.4-1.8   c1.7-11.2,4.3-22.3,5.5-33.6c0.5-4.6-1.2-7.5-5.1-9.3c-11.8-5.5-24.9,1.7-26.6,14.5c-0.2,1.7-0.1,2.6,2,2.5c2.8-0.1,5.6-0.1,8.3,0   c2,0.1,2.6-0.7,2.8-2.6c0.2-2.1,0.8-4.1,1.3-6.1c0.2-1,1-1.5,2.1-1.5c0.8,0,1.2,0.4,1.5,1.2c1,3-1.3,8.3-4.3,9.6   c-3.2,1.3-6.4,2.7-9.7,3.9c-3.9,1.4-6,4.2-6.6,8.2c-0.4,2.4-0.9,4.8-1.1,7.2c-0.5,5.9,2.2,8.7,8.1,8.6c2.4,0,4.6-0.6,6.4-2.2   c0.9-0.8,1.7-1.5,1.8,0.6c0,1,1,0.8,1.6,0.8C1466.4,1013.5,1468.1,1013.4,1469.7,1013.4z M1154.2,1013.4c1.6,0,3.2,0,4.9,0   c1.2,0,2-0.2,2.2-1.6c1.8-11.6,4.4-23,5.6-34.6c0.4-3.9-1.5-6.7-5-8.4c-11.7-5.7-25.4,1.7-26.8,14.6c-0.2,1.9,0.4,2.4,2.2,2.4   c2.7-0.1,5.3-0.1,8,0c2.1,0.1,2.8-0.7,3-2.7c0.2-2.1,0.8-4.1,1.3-6.1c0.2-0.9,1-1.3,1.8-1.3c0.8,0,1.3,0.3,1.6,1   c1.1,2.6-1.1,8.4-3.7,9.5c-3.3,1.4-6.6,2.8-10,4c-4.2,1.5-6.2,4.6-6.9,8.8c-0.3,1.9-0.7,3.9-0.9,5.8c-0.7,7.4,4.1,11.2,11.2,9.1   c1.9-0.5,3.7-4.3,6-0.5c0.1,0.2,0.9,0,1.3,0C1151.4,1013.4,1152.8,1013.4,1154.2,1013.4z M1022.3,1013.4c1.7,0,3.5-0.1,5.2,0   c1.3,0.1,1.9-0.5,2.1-1.7c1.8-11.3,4.3-22.5,5.5-33.9c0.5-4.5-1.6-7.7-5.7-9.3c-11.8-4.6-23.5,1.7-25.9,14   c-0.5,2.7,0.1,3.5,2.9,3.3c2.5-0.2,5.1-0.1,7.6,0c1.6,0.1,2.3-0.6,2.5-2.1c0.3-2.2,0.8-4.3,1.3-6.5c0.2-1,1-1.5,2-1.5   c0.7,0,1.2,0.4,1.5,1.1c1,2.8-1.2,8.3-3.9,9.5c-3.3,1.4-6.6,2.7-10,4c-3.9,1.4-6,4.2-6.7,8.2c-0.4,2.2-0.8,4.3-1,6.5   c-0.7,7.2,4,10.9,11,9.1c2-0.5,3.7-3.9,6.5-0.7C1018,1014.2,1020.6,1013.4,1022.3,1013.4z M1322,982.8c1.5,0,3,0,4.5,0   c0.7,0,1.4,0.1,1.9-0.6c2.4-3.4,0.8-10.4-3-12.7c-11.5-6.9-25.4,0.3-26.2,13.6c-0.2,3.5,0.8,6.4,3.7,8.5c2.4,1.7,4.7,3.5,7.3,4.8   c3.5,1.8,3.6,4.3,2.6,7.6c-0.5,1.6-1.4,2.5-3,2.3c-1.9-0.2-1.2-1.8-1.5-3c-0.4-1.9,1.9-4.2,0-5.4c-1.4-0.9-3.8-0.3-5.8-0.3   c-0.6,0-1.2,0.1-1.7,0c-3.4-0.7-4.4,1-4.7,4c-0.4,4.2-0.6,8.2,3.7,10.7c12.2,7.2,26.4-0.7,26.8-14.7c0.1-3.8-1.2-6.5-4.4-8.4   c-2.4-1.5-4.8-2.9-7.2-4.2c-3-1.7-3.4-4.1-2.5-7.1c0.5-1.5,1.5-2.4,3.1-2.1c1.7,0.4,1.3,1.9,1,2.9c-1.4,4,0.5,4.8,3.9,4.2   C1321.1,982.7,1321.5,982.8,1322,982.8z M1526.8,1013.4c1,0,2.1,0,3.1,0c8.6,0,8.6,0,9.9-8.5c0-0.2,0.1-0.5,0.2-0.7   c0.4-1.3,0-2-1.5-1.9c-0.9,0.1-1.9,0-2.8,0c-4.2,0-4.2,0-3.4-4.2c2.2-12.2,4.3-24.4,6.6-36.6c0.4-2.3,0.1-3.4-2.6-3.2   c-3,0.2-6,0.2-9.1,0c-1.7-0.1-2.5,0.5-2.8,2.2c-2.9,16.9-5.9,33.8-8.9,50.7c-0.3,1.7,0.1,2.3,1.8,2.2   C1520.6,1013.4,1523.7,1013.4,1526.8,1013.4z M928.1,1013.4c3.6,0,7.1-0.2,10.6,0.1c2.6,0.2,3.5-0.6,4-3.3   c1.7-10.5,3.7-21,5.5-31.5c0.2-1.2,0.4-2,2-2.2c3.7-0.4,2.2-3.8,2.6-5.8c0.5-2.4-2-0.8-3.1-1.3c-0.7-0.3-2.1,0.4-2.1-1.1   c0-1.1,0.4-2.1,1.5-2.5c0.9-0.3,1.8-0.5,2.7-0.4c1.5,0.1,2-0.6,2.3-1.9c1.3-5.1,1.4-5.1-3.9-5.1c-1.6,0-3.3,0-4.9,0.1   c-5.4,0.5-7.8,2.7-9,8c-0.3,1.3-0.3,2.7-2.3,3c-1.5,0.2-2.8,6.6-1.6,6.8c3.1,0.6,1.6,2.5,1.4,3.9   C932,991.2,930.1,1002.1,928.1,1013.4z M1286.4,1013.4C1286.4,1013.4,1286.4,1013.4,1286.4,1013.4c0.6,0.1,1.2,0.1,1.7,0.1   c4.8,0,5.7-0.9,5.6-5.7c0-0.9,0-1.7-1.1-1.7c-3.1,0.1-2.6-2-2.2-3.8c1.3-7.8,2.8-15.5,4.1-23.2c0.3-1.7,0.8-2.8,2.8-2.5   c2,0.2,1.9-1.4,1.9-2.6c0-1.5,1.6-4.1,0.1-4.3c-4.2-0.5-2.6-2.8-2.2-4.9c0.4-1.9,0-2.8-2.2-2.7c-2.7,0.1-5.3,0.2-8,0   c-2.6-0.2-3.7,0.7-4,3.3c-0.2,1.7,0.3,4.1-2.9,4.1c-1.1,0-2.2,6.6-1.2,6.8c3.3,0.5,1.8,2.7,1.5,4.2c-1.3,8.2-2.9,16.4-4.2,24.6   c-0.9,5.5,1.2,8,6.8,8.3C1284.1,1013.4,1285.3,1013.4,1286.4,1013.4z M1558.2,962.1c-0.7,0-1.4,0.1-2.1,0c-3.8-0.7-5.9,0.7-5.8,4.7   c0,1.4-0.3,2.4-2.1,2.6c-1.4,0.2-3.1,6.4-2,6.7c3.9,1.1,1.7,3.6,1.5,5.4c-1.2,8-2.7,16-4,24c-0.8,4.9,1.3,7.5,6.3,7.9   c2.3,0.2,4.6,0.1,6.9,0.1c3,0,5.4-3.6,4.5-6.5c-0.2-0.7-0.6-0.9-1.3-0.9c-2.8,0.1-2.5-1.7-2.2-3.5c1.4-8,2.8-15.9,4.2-23.9   c0.2-1.2,0.5-2.2,2.1-2.1c4,0.2,2.2-3.3,3-5.1c1-2.1-0.7-2.1-2.2-2.2c-1.4-0.1-1-1.3-0.9-2.2c0.4-4.9,0.5-4.9-4.6-4.9   C1559.1,962.1,1558.7,962.1,1558.2,962.1z M1055.1,968.2c-4.1,0-7.8,0.1-11.5,0c-1.6-0.1-2.3,0.6-2.5,2.1   c-2.4,13.6-4.7,27.2-7.2,40.8c-0.4,2.2,0.4,2.5,2.3,2.4c2.8-0.1,5.6-0.2,8.4,0c2.1,0.1,3-0.5,3.3-2.7c1.1-7,2.4-13.9,3.8-20.9   c1-4.7,2.3-5.9,6.9-6.4c1.7-0.2,2.4-0.7,2.6-2.4c0.6-3.9,1.2-7.8,2-11.6c0.4-2.1-0.4-2.1-2-1.7c-2.5,0.7-4.2,2.6-6.6,4.2   C1054.8,970.6,1054.9,969.5,1055.1,968.2z M1190.4,1013.3c0,0,0,0.1,0,0.1c0.3,0,0.7,0,1,0c4.1,0,5.9-2,5.4-6   c-0.1-0.9-0.5-1.2-1.3-1.2c-3.4,0.1-3.3-2-2.9-4.4c1.9-11,3.8-21.9,5.8-32.9c0.4-2.1,1.5-3.4,3.8-3.3c1.6,0.1,2.2-0.6,2.4-2.2   c1.1-6.3,1.3-5-4-5.1c-1.3,0-2.6,0-3.8,0.1c-6.6,0.5-9.2,2.5-10.5,9c-2.4,12.3-4.6,24.6-6.6,37c-1,6,1.1,8.3,7.2,8.9   C1188.1,1013.4,1189.3,1013.3,1190.4,1013.3z M1485,1013.4C1485,1013.4,1485,1013.4,1485,1013.4c0.8-0.1,1.6,0,2.4-0.1   c7.2-0.4,9.7-2.3,11.4-9.3c0.9-3.7,1.5-7.5,2.1-11.3c1.5-8.3,3-16.7,4.3-25c1-6.4-0.9-8.8-7.4-9.3c-1.8-0.2-3.7-0.1-5.6-0.1   c-2.5,0-5.1,4.2-4.1,6.6c0.2,0.5,0.6,0.7,1.1,0.6c3.7-0.2,3.4,2.2,3,4.6c-1.9,10.7-3.8,21.5-5.6,32.2c-0.4,2.3-1.5,3.9-4.1,3.8   c-0.8,0-1.5,0.1-2,1c-2.1,4.2-0.9,6.2,3.7,6.2C1484.5,1013.4,1484.8,1013.4,1485,1013.4z"/>
	<path class="st1" d="M1351.8,994.5c-1.8,5.5-3.6,10.9-5.3,16.4c-0.5,1.8-1.3,2.7-3.4,2.5c-3.4-0.2-6.7-0.1-10.1,0   c-1.7,0.1-2.5-0.3-2.4-2.3c0.7-13.7,1.3-27.3,1.9-41c0.1-1.5,0.7-1.9,2.1-2c9.6-0.8,9.6-0.8,9.2,8.6c-0.2,4.8-0.4,9.7-0.1,14.6   c1.9-6.3,4-12.5,5.5-18.8c0.8-3.4,2.2-4.6,5.8-4.4c7.3,0.3,7.3,0.1,6.6,7.6c-0.4,4.7-0.7,9.5-0.6,14.3c1.6-5.2,3.2-10.4,4.8-15.6   c1.9-6.2,2-6.2,8.3-6.2c5.6,0,5.6,0,4,5.4c-3.7,12.3-7.4,24.6-10.9,37c-0.6,2.2-1.5,3-3.8,2.9c-3.1-0.2-6.3-0.2-9.4,0   c-2.3,0.2-2.7-0.7-2.6-2.8c0.4-5.4,0.6-10.7,0.8-16.1C1352.2,994.6,1352,994.6,1351.8,994.5z"/>
	<path class="st1" d="M768.1,983.7c5.7,1.8,6.5,5.5,5.9,9.9c-0.6,4.2-1.2,8.5-2.6,12.6c-1.4,3.8-3.9,6.3-8,6.8   c-8.2,1.1-16.4,0.3-24.7,0.5c-2,0.1-1.6-1.1-1.4-2.3c2.6-14.6,5.2-29.2,7.8-43.8c0.5-2.9-0.1-7.1,2-8.5c2.2-1.5,6-0.5,9.2-0.5   c4.5,0,9-0.4,13.5,0.6c4.5,1,6.8,3.6,7.1,8.2c0.2,3.4-0.3,6.7-1.2,10C774.8,980.7,772,982.3,768.1,983.7z M760.1,991.4   c0.1-1.8-0.9-2.4-2.5-2.7c-2-0.5-2,1-2.3,2.2c-0.7,3.5-1.2,7-1.8,10.5c-0.1,0.7-0.9,1.8,0,2.2c0.7,0.3,1.8,0.1,2.7-0.2   c1.1-0.3,1.7-1.2,1.9-2.3C758.8,998,759.5,994.7,760.1,991.4z M763.5,972.2c0-2.2,0.2-3.8-2.1-4.2c-2.6-0.5-2.1,1.5-2.4,2.7   c-0.5,2-0.9,4.1-1,6.1c-0.1,1-1.7,2.6,0.4,3c1.6,0.3,3.3-0.3,3.8-2.2C762.7,975.7,763.2,973.7,763.5,972.2z"/>
	<path class="st1" d="M991.7,983.7c5.5,1.7,6.5,5.1,6,9.4c-0.5,4.4-1.2,8.7-2.6,12.9c-1.3,4-3.9,6.5-8.2,7c-8.2,1-16.4,0.3-24.7,0.5   c-2.1,0.1-1.4-1.3-1.2-2.4c1.9-10.7,3.8-21.4,5.7-32.1c1.1-5.9,2-11.9,3.1-17.8c0.2-1.1-0.1-2.8,1.9-2.7c7.1,0.2,14.2-0.7,21.2,0.6   c5.3,1,7.5,3.7,7.7,9.1c0.1,2.8-0.4,5.5-1,8.3C998.8,980.1,996.2,982.2,991.7,983.7z M983.8,991.3c0.1-1.9-1.2-2.3-2.7-2.6   c-1.8-0.4-1.9,0.9-2.1,2c-0.7,3.7-1.2,7.5-2,11.2c-0.5,2.2,0.5,2,1.9,1.8c1.4-0.2,2.4-0.9,2.7-2.3   C982.5,998,983.1,994.7,983.8,991.3z M987.2,972.2c0-2.2,0.2-3.8-2.1-4.2c-2.6-0.5-2.1,1.5-2.4,2.8c-0.5,2-0.9,4.1-1,6.1   c-0.1,1-1.7,2.6,0.4,3c1.6,0.3,3.3-0.3,3.8-2.2C986.4,975.7,986.8,973.7,987.2,972.2z"/>
	<path class="st1" d="M1232.2,983.6c4.8,1.8,5.7,5.3,5.1,9.7c-0.5,3.9-1.1,7.8-2.2,11.6c-1.3,4.9-4.4,7.9-9.5,8.3   c-7.9,0.6-15.8,0.2-23.6,0.3c-1.6,0-1.6-0.8-1.4-2c3-17,6-34,9-51c0.2-1,0.2-2.2,1.7-2.1c7.2,0.3,14.4-0.7,21.5,0.6   c4.9,0.9,7.2,3.6,7.4,8.6c0.1,2.9-0.3,5.8-0.9,8.6C1238.5,980.1,1236,982.2,1232.2,983.6z M1223.4,991.5c0.1-1.7-0.7-2.4-2.4-2.8   c-2-0.5-2.1,0.8-2.3,2.1c-0.6,3.5-1.2,7-1.8,10.5c-0.1,0.8-1.1,1.9,0.2,2.4c0.8,0.3,1.8,0,2.7-0.3c1-0.4,1.6-1.3,1.8-2.4   C1222.2,997.8,1222.8,994.7,1223.4,991.5z M1227.1,971.4c-0.1-1.8-0.3-3.2-2.5-3.5c-2.4-0.3-1.9,1.5-2.2,2.7   c-0.5,2.1-0.9,4.3-1.1,6.5c-0.1,0.9-1.5,2.4,0.3,2.8c1.5,0.4,3.2-0.1,3.7-1.8C1226.1,976,1226.5,973.7,1227.1,971.4z"/>
	<path class="st1" d="M1111.9,1010.6c-3.1,2.4-6,3.8-9.4,3.7c-4.8-0.2-7.8-3.1-7.2-7.8c1.2-10.7,3-21.3,5.6-31.8   c1.7-6.6,10-9.5,15.8-5.9c1.9,1.2,2.7,1.8,3.1-1.2c0.4-3-0.1-7.3,2.1-8.8c2.1-1.5,6-0.5,9.1-0.5c4.3,0,4.3,0,3.5,4.3   c-2.9,16.1-5.8,32.1-8.5,48.2c-0.4,2.1-1.1,2.7-3.1,2.6c-2.8-0.2-5.6-0.1-8.3,0C1112.8,1013.5,1111.3,1013.6,1111.9,1010.6z    M1109.5,1002.7c-0.2,1.8-0.3,3,1,3.4c1.4,0.4,2.2-0.5,2.6-1.7c0.2-0.6,0.4-1.3,0.5-2c1.4-7.9,2.8-15.7,4.2-23.6   c0.2-1.2,0.8-2.7-1.1-3.1c-1.8-0.4-2.4,0.9-2.7,2.4C1112.4,986.6,1110.9,995,1109.5,1002.7z"/>
	<path class="st1" d="M1580.9,1010.6c-3.1,2.4-6,3.9-9.4,3.7c-4.8-0.2-7.8-3-7.3-7.7c1.2-10.7,3-21.3,5.6-31.8   c1.7-6.6,10-9.5,15.8-5.9c1.9,1.2,2.7,1.9,3.1-1.1c0.4-3-0.1-7.3,2.1-8.8c2.1-1.5,6-0.5,9.1-0.5c4.4,0,4.3,0,3.5,4.3   c-2.9,16.1-5.8,32.1-8.5,48.2c-0.4,2.1-1.1,2.7-3.1,2.6c-2.8-0.2-5.6-0.1-8.3,0C1581.8,1013.5,1580.2,1013.6,1580.9,1010.6z    M1586.8,978.4c0.1-1.2,0.2-2.4-1.4-2.7c-1.4-0.2-2.1,0.7-2.5,1.9c-0.2,0.7-0.3,1.3-0.5,2c-1.3,7.6-2.7,15.3-4,22.9   c-0.2,1.3-1,3.1,1,3.5c1.9,0.5,2.5-1.2,2.8-2.8C1583.8,995,1585.3,986.7,1586.8,978.4z"/>
	<path class="st1" d="M867.4,978.6c2.1-2.4,3-5.4,4.4-8.2c0.8-1.7,1.9-2.4,3.8-2.2c2.8,0.2,5.5,0,8.6,0c-0.9,3.5-2.4,6.3-4.1,9   c-4,6.3-4.7,13-3.5,20.2c0.7,4.4,0.8,9,1.3,13.5c0.2,2-0.5,2.6-2.4,2.5c-2.7-0.1-5.3-0.1-8,0c-1.9,0.1-2.7-0.4-2.7-2.5   c0.1-4.2,0-8.5,0-12.7c-0.4,0-0.9-0.1-1.3-0.1c-0.8,4.1-1.8,8.1-2.2,12.2c-0.3,2.7-1.5,3.2-3.8,3c-2.4-0.2-4.9-0.3-7.3,0   c-3.1,0.4-3.3-1.1-2.8-3.5c2.9-16.1,5.8-32.2,8.5-48.3c0.4-2.4,1.1-3.7,3.9-3.4c2.6,0.3,5.3,0.2,8,0c2.5-0.2,2.6,0.9,2.3,2.9   C869,967,867.3,972.7,867.4,978.6c-0.7-0.1-0.6,0.4-0.5,0.8c0,0.1,0.1,0.2,0.2,0.3C867.1,979.3,867.2,979,867.4,978.6z"/>
	<path class="st1" d="M1431.7,970.9c2.7-2,5.5-3.7,9.1-3.5c4.7,0.3,7.3,2.8,7.1,7.5c-0.3,7-2.2,13.7-3.2,20.6   c-0.8,5-1.8,10-2.6,15.1c-0.3,2-0.9,3-3.2,2.9c-3.7-0.2-7.4-0.1-11.2-0.1c2-11.4,3.9-22.3,5.8-33.2c0.1-0.5,0.3-0.9,0.3-1.4   c-0.1-1.1,0.9-2.8-1.1-3.1c-1.8-0.3-2.4,1.1-2.7,2.5c-0.9,4.3-1.7,8.6-2.5,13c-1.2,6.6-2.4,13.2-3.4,19.8c-0.3,1.9-1,2.5-2.9,2.4   c-2.8-0.1-5.6-0.2-8.3,0c-2.6,0.2-3.1-0.7-2.7-3.1c1.8-9.7,3.5-19.4,5.2-29.1c0.6-3.4,1.3-6.8,1.7-10.3c0.3-2.1,0.9-3.1,3.3-2.9   c2.8,0.2,5.6,0.2,8.3,0C1431.1,968,1431.8,969,1431.7,970.9c-0.1,0.1-0.3,0.1-0.4,0.1c0,0.1,0.1,0.3,0.1,0.4   C1431.5,971.2,1431.6,971.1,1431.7,970.9z"/>
	<path class="st1" d="M831.8,970.9c2.7-2,5.5-3.7,9.1-3.5c4.7,0.3,7.3,2.8,7.1,7.5c-0.3,7-2.2,13.7-3.2,20.6c-0.8,5-1.8,10-2.6,15.1   c-0.3,2-0.9,3-3.2,2.9c-3.7-0.2-7.4-0.1-11.2-0.1c2-11.4,3.9-22.3,5.8-33.2c0.1-0.5,0.3-0.9,0.2-1.4c-0.1-1.1,0.9-2.8-1.1-3.1   c-1.8-0.3-2.4,1.1-2.7,2.5c-0.9,4.3-1.7,8.6-2.5,13c-1.2,6.6-2.4,13.2-3.4,19.8c-0.3,1.9-1,2.5-2.9,2.4c-2.8-0.1-5.6-0.2-8.3,0   c-2.6,0.2-3.1-0.7-2.7-3.1c1.8-9.7,3.5-19.4,5.2-29.1c0.6-3.4,1.3-6.8,1.7-10.3c0.3-2.1,0.9-3.1,3.3-2.9c2.8,0.2,5.6,0.2,8.3,0   C831.2,968,831.9,969,831.8,970.9c-0.1,0.1-0.3,0.1-0.4,0.1c0,0.1,0.1,0.3,0.1,0.4C831.6,971.2,831.7,971.1,831.8,970.9z"/>
	<path class="st1" d="M1072.8,1014.3c-0.8-0.1-2.3-0.1-3.8-0.3c-5.9-0.9-9-4.2-8.6-10.2c0.5-8.6,1.9-17.1,4.5-25.2   c3.3-10.2,17.2-14.7,26.2-8.9c4,2.6,5.1,6.5,4.4,10.9c-1,6.3-2,12.6-3.3,18.8C1090.1,1009.6,1084,1014.4,1072.8,1014.3z    M1082.2,978.5c-0.2-1.3,0.3-2.5-1.2-2.8c-1.3-0.2-1.9,0.6-2.3,1.6c-0.2,0.5-0.3,1.1-0.4,1.7c-1.4,8-2.8,16-4.2,24   c-0.2,1.2-0.6,2.8,1.1,3.2c1.7,0.4,2.2-1.1,2.5-2.3C1079.2,995.3,1080.7,986.7,1082.2,978.5z"/>
	<path class="st1" d="M1252.6,1014.3c-0.8-0.1-2.3-0.1-3.8-0.3c-5.9-0.9-9-4.2-8.6-10.2c0.5-8.6,1.9-17.1,4.5-25.2   c3.3-10.2,17.1-14.8,26.2-8.9c3.8,2.5,5.1,6.3,4.4,10.6c-1,6.4-2,12.8-3.3,19.2C1269.9,1009.6,1263.8,1014.4,1252.6,1014.3z    M1261.9,979c-0.1-1.8,0.5-3.1-1.1-3.3c-1.9-0.3-2.4,1.1-2.6,2.5c-1.5,8.4-3,16.9-4.5,25.3c-0.2,1.1-0.2,2.3,1.1,2.6   c1.7,0.4,2.3-1,2.5-2.2C1258.9,995.4,1260.4,986.8,1261.9,979z"/>
	<path class="st1" d="M906.3,1014.3c-0.8-0.1-2.3-0.1-3.8-0.3c-5.9-0.9-9-4.2-8.6-10.2c0.5-8.6,1.9-17.1,4.5-25.2   c3.3-10.2,17.2-14.8,26.2-8.9c4,2.6,5.1,6.5,4.4,10.9c-1,6.3-2,12.6-3.3,18.8C923.6,1009.6,917.5,1014.4,906.3,1014.3z    M915.7,978.5c-0.2-1.2,0.5-2.6-1.4-2.8c-1.5-0.1-2,1-2.3,2.1c-0.1,0.4-0.3,0.9-0.3,1.3c-1.4,8-2.8,16-4.2,24   c-0.2,1.3-0.5,2.8,1.3,3c1.7,0.2,2.2-1.3,2.4-2.5C912.7,995.3,914.2,986.8,915.7,978.5z"/>
	<path class="st1" d="M798.7,1013.4c-1.7,0-4.3,0.7-5.1-0.1c-2.8-3.1-4.4,0.1-6.5,0.6c-7,2-11.8-1.8-11.1-8.9c0.2-2.2,0.6-4.4,1-6.5   c0.7-4,2.7-6.8,6.6-8.2c3.3-1.2,6.5-2.5,9.7-3.9c3-1.3,5.3-6.5,4.3-9.6c-0.3-0.8-0.7-1.2-1.5-1.2c-1,0-1.8,0.4-2.1,1.4   c-0.5,2-1,4-1.3,6.1c-0.2,1.8-0.8,2.7-2.8,2.6c-2.8-0.1-5.6-0.1-8.3,0c-2,0.1-2.2-0.8-2-2.5c1.6-12.8,14.8-20,26.6-14.5   c3.5,1.6,5.5,4.3,5.2,8.3c-1.1,11.8-3.8,23.3-5.6,35c-0.2,1.2-0.9,1.5-1.9,1.5C802.2,1013.4,800.5,1013.4,798.7,1013.4z    M795.4,992.4c-5,2.3-5.4,6.4-6,10.4c-0.2,1.2-0.7,3,1.3,3.3c1.8,0.3,2.4-1.2,2.7-2.5C794.1,1000,794.7,996.4,795.4,992.4z"/>
	<path class="st1" d="M1397.8,1013.4c-1.9,0-4.9,0.7-5.4-0.1c-2.3-3.7-3.7-0.2-5.2,0.4c-7.1,2.7-12.7-1.3-11.9-8.8   c0.2-2.1,0.6-4.1,1-6.2c0.7-4.1,2.8-7,6.8-8.4c3.4-1.2,6.7-2.6,10-4c2.7-1.1,4.9-6.9,3.8-9.5c-0.3-0.8-0.9-1.1-1.6-1   c-1.1,0-1.8,0.6-2,1.6c-0.5,2-1,4.1-1.2,6.1c-0.2,1.7-0.8,2.5-2.6,2.4c-2.9-0.1-5.8-0.1-8.7,0c-1.9,0.1-2-0.8-1.8-2.3   c1.4-12.8,15-20.3,26.8-14.6c3.6,1.7,5.4,4.6,5,8.7c-1.2,11.5-3.8,22.8-5.6,34.3c-0.2,1.3-0.9,1.7-2.2,1.6   C1401.2,1013.4,1399.5,1013.4,1397.8,1013.4C1397.8,1013.4,1397.8,1013.4,1397.8,1013.4z M1394.6,992.4c-5,2.3-5.4,6.4-6,10.4   c-0.2,1.2-0.7,3,1.3,3.3c1.8,0.3,2.4-1.2,2.7-2.5C1393.3,1000,1393.9,996.4,1394.6,992.4z"/>
	<path class="st1" d="M1469.7,1013.4c-1.6,0-3.2,0-4.9,0c-0.6,0-1.6,0.3-1.6-0.8c-0.1-2.1-0.8-1.4-1.8-0.6c-1.8,1.6-4,2.2-6.4,2.2   c-5.9,0.1-8.6-2.8-8.1-8.6c0.2-2.4,0.7-4.8,1.1-7.2c0.7-4,2.8-6.8,6.6-8.2c3.3-1.2,6.5-2.5,9.7-3.9c3-1.3,5.3-6.6,4.3-9.6   c-0.3-0.8-0.7-1.2-1.5-1.2c-1,0-1.8,0.4-2.1,1.5c-0.5,2-1,4-1.3,6.1c-0.2,1.8-0.8,2.7-2.8,2.6c-2.8-0.1-5.6-0.1-8.3,0   c-2.1,0.1-2.2-0.9-2-2.5c1.7-12.8,14.9-20,26.6-14.5c3.9,1.8,5.6,4.7,5.1,9.3c-1.2,11.3-3.7,22.4-5.5,33.6c-0.2,1.5-1,1.9-2.4,1.8   C1472.9,1013.4,1471.3,1013.4,1469.7,1013.4z M1466.4,992.4c-5.3,2.5-5.5,6.9-6.1,11.2c-0.2,1.2,0,2.4,1.6,2.5   c1.4,0.1,2.1-0.8,2.4-2C1464.9,1000.4,1465.6,996.6,1466.4,992.4z"/>
	<path class="st1" d="M1154.2,1013.4c-1.4,0-2.8,0-4.2,0c-0.5,0-1.2,0.2-1.3,0c-2.4-3.7-4.1,0-6,0.5c-7.1,2.1-12-1.8-11.2-9.1   c0.2-2,0.6-3.9,0.9-5.8c0.7-4.2,2.8-7.3,6.9-8.8c3.4-1.2,6.7-2.6,10-4c2.7-1.1,4.9-7,3.7-9.5c-0.3-0.7-0.9-1-1.6-1   c-0.9,0-1.6,0.4-1.8,1.3c-0.5,2-1.1,4-1.3,6.1c-0.2,2-0.9,2.9-3,2.7c-2.7-0.2-5.3-0.1-8,0c-1.8,0.1-2.4-0.4-2.2-2.4   c1.5-12.8,15.1-20.3,26.8-14.6c3.5,1.7,5.4,4.5,5,8.4c-1.1,11.7-3.8,23.1-5.6,34.6c-0.2,1.4-1,1.6-2.2,1.6   C1157.5,1013.4,1155.8,1013.4,1154.2,1013.4z M1150.7,992.5c-5.1,2.2-5.5,6.6-6,10.8c-0.2,1.2-0.4,2.7,1.4,2.9   c1.6,0.2,2.3-1,2.5-2.3C1149.4,1000.2,1150,996.5,1150.7,992.5z"/>
	<path class="st1" d="M1022.3,1013.4c-1.7,0-4.3,0.7-5.1-0.1c-2.8-3.2-4.4,0.2-6.5,0.7c-7.1,1.9-11.8-1.9-11-9.1   c0.2-2.2,0.7-4.3,1-6.5c0.7-4,2.8-6.7,6.7-8.2c3.4-1.2,6.7-2.6,10-4c2.7-1.2,4.9-6.7,3.9-9.5c-0.3-0.8-0.8-1.1-1.5-1.1   c-1,0-1.8,0.5-2,1.5c-0.5,2.1-1,4.3-1.3,6.5c-0.2,1.6-0.9,2.2-2.5,2.1c-2.5-0.1-5.1-0.2-7.6,0c-2.7,0.2-3.4-0.6-2.9-3.3   c2.5-12.3,14.1-18.7,25.9-14c4.1,1.6,6.2,4.8,5.7,9.3c-1.2,11.4-3.7,22.6-5.5,33.9c-0.2,1.3-0.8,1.8-2.1,1.7   C1025.8,1013.4,1024.1,1013.4,1022.3,1013.4z M1019.1,992.4c-5.1,2.4-5.5,6.6-6,10.7c-0.2,1.2-0.5,2.7,1.3,3   c1.8,0.3,2.4-1.1,2.7-2.5C1017.8,1000.1,1018.4,996.5,1019.1,992.4z"/>
	<path class="st1" d="M1322,982.8c-0.5,0-0.9-0.1-1.4,0c-3.4,0.5-5.3-0.2-3.9-4.2c0.3-0.9,0.7-2.5-1-2.9c-1.6-0.3-2.6,0.5-3.1,2.1   c-1,3-0.5,5.5,2.5,7.1c2.4,1.3,4.8,2.8,7.2,4.2c3.1,1.9,4.5,4.6,4.4,8.4c-0.4,14-14.5,21.9-26.8,14.7c-4.3-2.5-4.1-6.6-3.7-10.7   c0.3-3,1.3-4.8,4.7-4c0.6,0.1,1.2,0,1.7,0c2,0,4.4-0.6,5.8,0.3c1.8,1.2-0.4,3.5,0,5.4c0.2,1.2-0.5,2.8,1.5,3c1.6,0.1,2.5-0.8,3-2.3   c1.1-3.2,0.9-5.8-2.6-7.6c-2.6-1.3-4.9-3.1-7.3-4.8c-2.9-2.1-3.9-5-3.7-8.5c0.8-13.3,14.7-20.4,26.2-13.6c3.8,2.2,5.4,9.3,3,12.7   c-0.5,0.7-1.2,0.6-1.9,0.6C1325,982.8,1323.5,982.8,1322,982.8z"/>
	<path class="st1" d="M1526.8,1013.4c-3.1,0-6.3-0.1-9.4,0c-1.8,0.1-2.1-0.5-1.8-2.2c3-16.9,6-33.8,8.9-50.7c0.3-1.7,1-2.3,2.8-2.2   c3,0.1,6.1,0.2,9.1,0c2.7-0.2,3,0.9,2.6,3.2c-2.2,12.2-4.4,24.4-6.6,36.6c-0.8,4.2-0.8,4.2,3.4,4.2c0.9,0,1.9,0.1,2.8,0   c1.5-0.1,1.9,0.6,1.5,1.9c-0.1,0.2-0.1,0.4-0.2,0.7c-1.3,8.5-1.3,8.5-9.9,8.5C1528.9,1013.4,1527.9,1013.4,1526.8,1013.4z"/>
	<path class="st1" d="M928.1,1013.4c2-11.3,3.9-22.3,5.8-33.2c0.2-1.4,1.8-3.3-1.4-3.9c-1.2-0.2,0.2-6.6,1.6-6.8c2-0.3,2-1.6,2.3-3   c1.2-5.3,3.6-7.5,9-8c1.6-0.1,3.2-0.1,4.9-0.1c5.2,0,5.2,0,3.9,5.1c-0.3,1.3-0.8,2-2.3,1.9c-0.9-0.1-1.9,0.1-2.7,0.4   c-1.2,0.3-1.5,1.4-1.5,2.5c0,1.5,1.3,0.8,2.1,1.1c1.1,0.4,3.5-1.1,3.1,1.3c-0.4,2,1.1,5.4-2.6,5.8c-1.6,0.2-1.8,1-2,2.2   c-1.8,10.5-3.8,21-5.5,31.5c-0.4,2.7-1.4,3.5-4,3.3C935.2,1013.3,931.8,1013.4,928.1,1013.4z"/>
	<path class="st1" d="M1286.4,1013.4c-1.2,0-2.3,0.1-3.5,0c-5.6-0.3-7.7-2.8-6.8-8.3c1.4-8.2,2.9-16.4,4.2-24.6   c0.2-1.4,1.8-3.7-1.5-4.2c-1-0.1,0.1-6.8,1.2-6.8c3.2,0,2.7-2.4,2.9-4.1c0.3-2.6,1.4-3.5,4-3.3c2.6,0.2,5.3,0.2,8,0   c2.2-0.1,2.6,0.8,2.2,2.7c-0.4,2-2,4.4,2.2,4.9c1.5,0.2-0.1,2.8-0.1,4.3c0,1.1,0,2.8-1.9,2.6c-2-0.2-2.5,0.8-2.8,2.5   c-1.3,7.8-2.7,15.5-4.1,23.2c-0.3,1.8-0.8,3.9,2.2,3.8c1.1,0,1.1,0.8,1.1,1.7c0.1,4.8-0.8,5.7-5.6,5.7   C1287.6,1013.4,1287,1013.4,1286.4,1013.4C1286.4,1013.4,1286.4,1013.4,1286.4,1013.4z"/>
	<path class="st1" d="M1558.2,962.1c0.5,0,0.9,0,1.4,0c5,0,5,0,4.6,4.9c-0.1,0.9-0.5,2,0.9,2.2c1.5,0.1,3.1,0.2,2.2,2.2   c-0.8,1.8,1,5.3-3,5.1c-1.6-0.1-1.9,0.9-2.1,2.1c-1.4,8-2.8,15.9-4.2,23.9c-0.3,1.7-0.6,3.6,2.2,3.5c0.6,0,1,0.3,1.3,0.9   c0.9,2.9-1.5,6.5-4.5,6.5c-2.3,0-4.6,0.1-6.9-0.1c-4.9-0.3-7.1-2.9-6.3-7.9c1.3-8,2.8-15.9,4-24c0.3-1.8,2.5-4.4-1.5-5.4   c-1.1-0.3,0.6-6.5,2-6.7c1.8-0.2,2.1-1.2,2.1-2.6c0-4.1,2.1-5.4,5.8-4.7C1556.8,962.2,1557.5,962.1,1558.2,962.1z"/>
	<path class="st1" d="M1055.1,968.2c-0.1,1.3-0.2,2.3-0.3,3.7c2.4-1.5,4.1-3.5,6.6-4.2c1.6-0.4,2.4-0.4,2,1.7   c-0.8,3.9-1.5,7.7-2,11.6c-0.2,1.7-0.9,2.2-2.6,2.4c-4.6,0.5-6,1.7-6.9,6.4c-1.4,6.9-2.7,13.9-3.8,20.9c-0.4,2.3-1.2,2.9-3.3,2.7   c-2.8-0.2-5.6-0.1-8.4,0c-1.9,0.1-2.7-0.2-2.3-2.4c2.5-13.6,4.8-27.2,7.2-40.8c0.3-1.5,0.9-2.1,2.5-2.1   C1047.3,968.3,1051,968.2,1055.1,968.2z"/>
	<path class="st1" d="M1190.4,1013.3c-1.2,0-2.3,0.1-3.5,0c-6.1-0.5-8.2-2.9-7.2-8.9c2-12.3,4.2-24.7,6.6-37c1.3-6.5,3.9-8.5,10.5-9   c1.3-0.1,2.6-0.1,3.8-0.1c5.2,0.1,5-1.2,4,5.1c-0.3,1.6-0.9,2.2-2.4,2.2c-2.3-0.1-3.4,1.2-3.8,3.3c-1.9,11-3.8,21.9-5.8,32.9   c-0.4,2.4-0.5,4.5,2.9,4.4c0.8,0,1.2,0.3,1.3,1.2c0.5,4-1.3,6-5.4,6c-0.3,0-0.7,0-1,0C1190.4,1013.4,1190.4,1013.4,1190.4,1013.3z"/>
	<path class="st1" d="M1485,1013.4c-0.2,0-0.5,0-0.7,0c-4.6,0-5.7-2-3.7-6.2c0.5-0.9,1.2-1,2-1c2.6,0.1,3.7-1.5,4.1-3.8   c1.9-10.7,3.8-21.5,5.6-32.2c0.4-2.4,0.7-4.8-3-4.6c-0.5,0-0.8-0.1-1.1-0.6c-1.1-2.3,1.5-6.6,4.1-6.6c1.9,0,3.7-0.1,5.6,0.1   c6.5,0.5,8.4,2.9,7.4,9.3c-1.4,8.3-2.9,16.7-4.3,25c-0.7,3.8-1.3,7.5-2.1,11.3c-1.6,6.9-4.1,8.9-11.4,9.3   C1486.6,1013.4,1485.8,1013.4,1485,1013.4C1485,1013.4,1485,1013.4,1485,1013.4z"/>
	<path class="st0" d="M760.1,991.4c-0.7,3.3-1.3,6.5-2,9.8c-0.2,1.1-0.9,2-1.9,2.3c-0.9,0.2-2,0.5-2.7,0.2c-0.9-0.4-0.1-1.4,0-2.2   c0.6-3.5,1.1-7,1.8-10.5c0.2-1.2,0.2-2.6,2.3-2.2C759.2,989.1,760.3,989.6,760.1,991.4z"/>
	<path class="st0" d="M763.5,972.2c-0.4,1.5-0.8,3.5-1.3,5.5c-0.5,1.9-2.2,2.5-3.8,2.2c-2.1-0.4-0.5-2-0.4-3c0.1-2.1,0.5-4.1,1-6.1   c0.3-1.3-0.1-3.2,2.4-2.7C763.7,968.4,763.6,970,763.5,972.2z"/>
	<path class="st0" d="M983.8,991.3c-0.7,3.4-1.4,6.8-2.1,10.1c-0.3,1.4-1.3,2.1-2.7,2.3c-1.4,0.2-2.4,0.3-1.9-1.8   c0.8-3.7,1.3-7.5,2-11.2c0.2-1.1,0.3-2.4,2.1-2C982.6,989,983.9,989.4,983.8,991.3z"/>
	<path class="st0" d="M987.2,972.2c-0.4,1.4-0.8,3.5-1.3,5.5c-0.5,1.9-2.2,2.6-3.8,2.2c-2.1-0.4-0.5-2-0.4-3c0.1-2.1,0.5-4.1,1-6.1   c0.3-1.2-0.2-3.2,2.4-2.8C987.4,968.4,987.2,970,987.2,972.2z"/>
	<path class="st0" d="M1223.4,991.5c-0.6,3.2-1.2,6.3-1.9,9.5c-0.2,1.1-0.7,2-1.8,2.4c-0.8,0.3-1.9,0.6-2.7,0.3   c-1.3-0.5-0.3-1.6-0.2-2.4c0.5-3.5,1.1-7,1.8-10.5c0.2-1.2,0.4-2.5,2.3-2.1C1222.7,989.1,1223.6,989.8,1223.4,991.5z"/>
	<path class="st0" d="M1227.1,971.4c-0.6,2.2-1,4.5-1.7,6.7c-0.6,1.7-2.3,2.1-3.7,1.8c-1.8-0.5-0.4-1.9-0.3-2.8   c0.2-2.2,0.6-4.4,1.1-6.5c0.3-1.1-0.2-3,2.2-2.7C1226.7,968.3,1227,969.6,1227.1,971.4z"/>
	<path class="st0" d="M1109.5,1002.7c1.4-7.7,2.9-16.2,4.5-24.6c0.3-1.5,0.9-2.8,2.7-2.4c1.9,0.4,1.3,1.9,1.1,3.1   c-1.4,7.9-2.8,15.7-4.2,23.6c-0.1,0.7-0.3,1.4-0.5,2c-0.5,1.2-1.3,2.1-2.6,1.7C1109.2,1005.7,1109.3,1004.5,1109.5,1002.7z"/>
	<path class="st0" d="M1586.8,978.4c-1.5,8.3-3,16.6-4.6,25c-0.3,1.5-0.9,3.2-2.8,2.8c-1.9-0.5-1.2-2.2-1-3.5   c1.3-7.7,2.6-15.3,4-22.9c0.1-0.7,0.3-1.4,0.5-2c0.4-1.2,1-2.1,2.5-1.9C1587.1,975.9,1586.9,977.1,1586.8,978.4z"/>
	<path class="st0" d="M867.4,978.6c-0.1,0.4-0.2,0.7-0.4,1.1c-0.1-0.1-0.2-0.2-0.2-0.3C866.8,979,866.7,978.5,867.4,978.6   C867.4,978.6,867.4,978.6,867.4,978.6z"/>
	<path class="st0" d="M1431.7,970.9c-0.1,0.2-0.2,0.3-0.3,0.5c0-0.1-0.1-0.3-0.1-0.4C1431.5,971,1431.6,971,1431.7,970.9   C1431.8,971,1431.7,970.9,1431.7,970.9z"/>
	<path class="st0" d="M831.8,970.9c-0.1,0.2-0.2,0.3-0.3,0.5c0-0.1-0.1-0.3-0.1-0.4C831.6,971,831.7,971,831.8,970.9   C831.9,971,831.8,970.9,831.8,970.9z"/>
	<path class="st0" d="M1082.2,978.5c-1.5,8.3-3,16.8-4.6,25.3c-0.2,1.2-0.8,2.7-2.5,2.3c-1.7-0.4-1.3-1.9-1.1-3.2   c1.4-8,2.8-16,4.2-24c0.1-0.6,0.3-1.1,0.4-1.7c0.4-1.1,1-1.8,2.3-1.6C1082.5,975.9,1082,977.2,1082.2,978.5z"/>
	<path class="st0" d="M1261.9,979c-1.4,7.8-2.9,16.3-4.6,24.9c-0.2,1.3-0.8,2.6-2.5,2.2c-1.3-0.3-1.3-1.5-1.1-2.6   c1.5-8.4,3-16.9,4.5-25.3c0.3-1.4,0.8-2.8,2.6-2.5C1262.3,976,1261.8,977.3,1261.9,979z"/>
	<path class="st0" d="M915.7,978.5c-1.5,8.3-3,16.8-4.5,25.2c-0.2,1.2-0.7,2.7-2.4,2.5c-1.8-0.3-1.5-1.8-1.3-3c1.4-8,2.8-16,4.2-24   c0.1-0.5,0.2-0.9,0.3-1.3c0.3-1.2,0.8-2.3,2.3-2.1C916.2,975.9,915.4,977.3,915.7,978.5z"/>
	<path class="st0" d="M795.4,992.4c-0.7,4-1.3,7.6-2,11.2c-0.3,1.4-0.8,2.8-2.7,2.5c-2-0.3-1.5-2.1-1.3-3.3   C790,998.9,790.4,994.7,795.4,992.4z"/>
	<path class="st0" d="M1394.6,992.4c-0.7,4-1.3,7.6-2,11.2c-0.3,1.4-0.8,2.8-2.7,2.5c-2-0.3-1.5-2.1-1.3-3.3   C1389.2,998.9,1389.6,994.7,1394.6,992.4z"/>
	<path class="st0" d="M1466.4,992.4c-0.8,4.2-1.4,8-2.2,11.7c-0.2,1.2-0.9,2.2-2.4,2c-1.6-0.1-1.7-1.3-1.6-2.5   C1460.9,999.4,1461.1,994.9,1466.4,992.4z"/>
	<path class="st0" d="M1150.7,992.5c-0.7,4-1.3,7.7-2.1,11.4c-0.3,1.3-0.9,2.5-2.5,2.3c-1.8-0.2-1.6-1.7-1.4-2.9   C1145.3,999.1,1145.6,994.7,1150.7,992.5z"/>
	<path class="st0" d="M1019.1,992.4c-0.7,4-1.3,7.7-2,11.2c-0.3,1.4-0.9,2.8-2.7,2.5c-1.8-0.3-1.5-1.8-1.3-3   C1013.6,999,1014,994.8,1019.1,992.4z"/>
</g>
</svg>