<svg width="20" height="19" viewBox="0 0 20 19" fill="none" xmlns="http://www.w3.org/2000/svg">
<path d="M15.7295 18.6462C15.729 18.6457 15.7284 18.6454 15.7276 18.6455C15.5882 18.6458 15.4521 18.6023 15.3386 18.5211L11.7484 15.9149C10.6973 15.152 9.27472 15.152 8.22368 15.9149L4.63339 18.5211C4.51893 18.6031 4.38144 18.6468 4.24063 18.6459C4.09982 18.645 3.96292 18.5995 3.84955 18.516C3.73618 18.4324 3.65216 18.3152 3.60954 18.181C3.56692 18.0468 3.56788 17.9025 3.61229 17.7689L4.97388 13.7348C5.40318 12.4629 4.93525 11.0606 3.82817 10.3013L0.287877 7.87335C0.171196 7.79278 0.0832394 7.6771 0.0367884 7.54313C-0.00966255 7.40915 -0.012189 7.26386 0.0295731 7.12835C0.0713352 6.99284 0.155213 6.87417 0.269021 6.78958C0.382829 6.705 0.520639 6.6589 0.662436 6.65798H5.16785C6.46655 6.65798 7.61778 5.82234 8.0202 4.58755L9.3659 0.458317C9.40978 0.324979 9.49462 0.208892 9.60834 0.126597C9.72206 0.044302 9.85886 0 9.99923 0C10.1396 0 10.2764 0.044302 10.3901 0.126597C10.5038 0.208892 10.5887 0.324979 10.6326 0.458317L11.9785 4.59024C12.3807 5.82524 13.5321 6.66109 14.831 6.66109H19.336C19.4779 6.66168 19.616 6.70754 19.73 6.79201C19.8441 6.87647 19.9282 6.99513 19.9702 7.13072C20.0122 7.2663 20.0098 7.41175 19.9633 7.54587C19.9169 7.68 19.8289 7.79581 19.7121 7.87647L16.153 10.3028C15.0412 11.0607 14.5701 12.4662 15.0005 13.7412L16.3597 17.7673C16.3935 17.8674 16.403 17.9741 16.3874 18.0786C16.3718 18.1831 16.3316 18.2823 16.2701 18.3682C16.2087 18.4542 16.1277 18.5242 16.0338 18.5727C15.9403 18.621 15.8367 18.6464 15.7314 18.647C15.7307 18.647 15.73 18.6467 15.7295 18.6462Z" fill="#2196F3"/>
</svg>
