<svg xmlns="http://www.w3.org/2000/svg" xmlns:xlink="http://www.w3.org/1999/xlink" width="500" zoomAndPan="magnify" viewBox="0 0 375 374.999991" height="500" preserveAspectRatio="xMidYMid meet" version="1.0"><defs><g/><clipPath id="af7f9a0a50"><path d="M 118 140.746094 L 183 140.746094 L 183 239 L 118 239 Z M 118 140.746094 " clip-rule="nonzero"/></clipPath><clipPath id="32020ea148"><path d="M 200 140.746094 L 264 140.746094 L 264 239 L 200 239 Z M 200 140.746094 " clip-rule="nonzero"/></clipPath><clipPath id="6b4abd6c14"><path d="M 94.957031 171 L 168 171 L 168 268.996094 L 94.957031 268.996094 Z M 94.957031 171 " clip-rule="nonzero"/></clipPath><clipPath id="e711101366"><path d="M 214.484375 171 L 287.640625 171 L 287.640625 268.996094 L 214.484375 268.996094 Z M 214.484375 171 " clip-rule="nonzero"/></clipPath><clipPath id="70f432595a"><path d="M 153 63.863281 L 237 63.863281 L 237 168.113281 L 153 168.113281 Z M 153 63.863281 " clip-rule="nonzero"/></clipPath><clipPath id="24230dba11"><path d="M 152 70 L 232 70 L 232 168.113281 L 152 168.113281 Z M 152 70 " clip-rule="nonzero"/></clipPath><clipPath id="3f50a171ae"><path d="M 188.578125 183 L 192 183 L 192 231 L 188.578125 231 Z M 188.578125 183 " clip-rule="nonzero"/></clipPath><clipPath id="0e24a5ed0a"><path d="M 188.578125 167.742188 L 196.078125 167.742188 L 196.078125 239.742188 L 188.578125 239.742188 Z M 188.578125 167.742188 " clip-rule="nonzero"/></clipPath></defs><rect x="-37.5" width="450" fill="#ffffff" y="-37.499999" height="449.999989" fill-opacity="1"/><rect x="-37.5" width="450" fill="#ffffff" y="-37.499999" height="449.999989" fill-opacity="1"/><rect x="-37.5" width="450" fill="#ffffff" y="-37.499999" height="449.999989" fill-opacity="1"/><g clip-path="url(#af7f9a0a50)"><path fill="#c1ff72" d="M 155.042969 233.449219 C 162.003906 233.449219 171.945312 234.339844 182.136719 238.222656 C 176.230469 234.984375 164.953125 230.179688 150.046875 230.179688 C 148.125 230.179688 146.167969 230.261719 144.234375 230.417969 L 143.875 230.449219 L 123.722656 146.199219 L 124.152344 146.117188 C 128.933594 145.1875 133.769531 144.714844 138.519531 144.714844 C 159.214844 144.714844 174.695312 153.632812 182.015625 158.882812 C 165.535156 143.222656 142.539062 140.746094 129.671875 140.746094 C 124.03125 140.746094 119.953125 141.214844 118.644531 141.386719 L 140.027344 234.839844 C 141.566406 234.519531 147.292969 233.449219 155.042969 233.449219 " fill-opacity="1" fill-rule="nonzero"/></g><g clip-path="url(#32020ea148)"><path fill="#c1ff72" d="M 227.554688 233.449219 C 220.59375 233.449219 210.648438 234.339844 200.457031 238.222656 C 206.367188 234.984375 217.644531 230.179688 232.550781 230.179688 C 234.472656 230.179688 236.429688 230.261719 238.363281 230.417969 L 238.722656 230.449219 L 258.875 146.199219 L 258.445312 146.117188 C 253.664062 145.1875 248.828125 144.714844 244.078125 144.714844 C 223.382812 144.714844 207.902344 153.632812 200.582031 158.882812 C 217.0625 143.222656 240.058594 140.746094 252.925781 140.746094 C 258.566406 140.746094 262.648438 141.214844 263.953125 141.386719 L 242.574219 234.839844 C 241.03125 234.519531 235.304688 233.449219 227.554688 233.449219 " fill-opacity="1" fill-rule="nonzero"/></g><path fill="#7ed957" d="M 131.964844 245.109375 C 141.582031 241.371094 151.546875 239.476562 161.597656 239.476562 C 168.082031 239.476562 173.507812 240.285156 177.398438 241.128906 C 170.84375 238.890625 163.359375 237.761719 155.058594 237.761719 C 144.3125 237.761719 136.082031 239.730469 136 239.753906 L 135.597656 239.851562 L 135.496094 239.445312 L 114.769531 156.882812 L 115.183594 156.789062 C 116.71875 156.433594 118.785156 156.148438 120.605469 155.898438 L 121.089844 155.832031 L 120.054688 151.296875 C 115.007812 151.542969 110.847656 152.078125 109.507812 152.265625 L 131.964844 245.109375 " fill-opacity="1" fill-rule="nonzero"/><path fill="#7ed957" d="M 250.632812 245.109375 C 241.015625 241.371094 231.046875 239.476562 221 239.476562 C 214.515625 239.476562 209.089844 240.285156 205.199219 241.128906 C 211.753906 238.890625 219.238281 237.761719 227.535156 237.761719 C 238.285156 237.761719 246.515625 239.730469 246.597656 239.753906 L 247 239.851562 L 247.101562 239.445312 L 267.828125 156.882812 L 267.414062 156.789062 C 265.875 156.433594 263.8125 156.148438 261.992188 155.898438 L 261.507812 155.832031 L 262.542969 151.296875 C 267.589844 151.542969 271.75 152.078125 273.085938 152.265625 L 250.632812 245.109375 " fill-opacity="1" fill-rule="nonzero"/><path fill="#14a25e" d="M 105.265625 176.511719 L 125.183594 256.371094 C 146.140625 246.234375 162.894531 244.09375 173.285156 244.09375 C 174.394531 244.09375 175.425781 244.117188 176.375 244.160156 C 172.75 243.574219 168.988281 243.28125 165.132812 243.28125 C 145.527344 243.28125 129.429688 250.914062 129.269531 250.992188 L 128.808594 251.214844 L 107.367188 168.304688 L 107.785156 168.207031 C 109.160156 167.878906 110.601562 167.585938 112.28125 167.292969 L 111.378906 163.570312 L 111.171875 162.710938 C 106.523438 162.988281 103.210938 163.511719 102.074219 163.710938 L 103.839844 170.792969 L 105.265625 176.511719 " fill-opacity="1" fill-rule="nonzero"/><path fill="#14a25e" d="M 277.332031 176.511719 L 257.414062 256.371094 C 236.457031 246.234375 219.703125 244.09375 209.3125 244.09375 C 208.203125 244.09375 207.171875 244.117188 206.222656 244.160156 C 209.847656 243.574219 213.609375 243.28125 217.464844 243.28125 C 237.070312 243.28125 253.167969 250.914062 253.328125 250.992188 L 253.789062 251.214844 L 275.230469 168.304688 L 274.8125 168.207031 C 273.4375 167.878906 271.996094 167.585938 270.316406 167.292969 L 271.214844 163.570312 L 271.425781 162.710938 C 276.074219 162.988281 279.386719 163.511719 280.523438 163.710938 L 278.757812 170.792969 L 277.332031 176.511719 " fill-opacity="1" fill-rule="nonzero"/><g clip-path="url(#6b4abd6c14)"><path fill="#1a8604" d="M 94.957031 172.089844 L 119.253906 269.007812 C 120.597656 267.941406 122.03125 266.871094 123.523438 265.824219 C 139.550781 254.597656 158.238281 249.382812 167.898438 247.28125 C 146.363281 249.339844 128.203125 258.804688 122.773438 261.890625 L 122.296875 262.160156 L 100.25 176.683594 L 100.667969 176.585938 C 101.730469 176.332031 102.847656 176.101562 104.238281 175.847656 L 103.113281 171.339844 L 103.066406 171.152344 C 98.941406 171.441406 96.011719 171.90625 94.957031 172.089844 " fill-opacity="1" fill-rule="nonzero"/></g><g clip-path="url(#e711101366)"><path fill="#1a8604" d="M 287.640625 172.089844 L 263.34375 269.007812 C 262 267.941406 260.566406 266.871094 259.074219 265.824219 C 243.046875 254.597656 224.363281 249.382812 214.699219 247.28125 C 236.234375 249.339844 254.394531 258.804688 259.824219 261.890625 L 260.300781 262.160156 L 282.347656 176.683594 L 281.929688 176.585938 C 280.867188 176.332031 279.75 176.101562 278.359375 175.847656 L 279.484375 171.339844 L 279.53125 171.152344 C 283.65625 171.441406 286.582031 171.90625 287.640625 172.089844 " fill-opacity="1" fill-rule="nonzero"/></g><g clip-path="url(#70f432595a)"><path fill="#00bf63" d="M 236.3125 129.792969 L 234.375 135.132812 C 229.710938 147.996094 215.488281 154.648438 202.605469 149.992188 L 197.753906 148.238281 C 196.761719 149.460938 195.871094 150.757812 195.121094 152.105469 C 195.113281 152.121094 195.105469 152.132812 195.097656 152.148438 C 195.050781 153.898438 195.070312 155.652344 195.179688 157.40625 C 195.324219 159.652344 195.523438 161.898438 195.761719 164.136719 C 196.25 168.617188 196.929688 173.085938 197.855469 177.515625 C 198.128906 179.074219 198.21875 180.546875 198.121094 181.882812 C 197.808594 182.117188 197.523438 182.382812 197.277344 182.675781 C 195.964844 181.929688 194.226562 181.945312 192.933594 182.722656 C 191.933594 181.582031 190.636719 180.730469 189.175781 180.261719 C 188.597656 180.078125 187.984375 179.964844 187.371094 179.914062 C 187.371094 179.777344 187.367188 179.640625 187.371094 179.5 C 187.371094 179.453125 187.371094 179.40625 187.371094 179.359375 C 187.375 179.242188 187.375 179.125 187.378906 179.003906 C 187.382812 178.921875 187.386719 178.835938 187.390625 178.753906 C 187.394531 178.664062 187.398438 178.578125 187.402344 178.492188 C 187.414062 178.316406 187.425781 178.140625 187.441406 177.960938 C 187.457031 177.808594 187.476562 177.65625 187.492188 177.503906 C 188.003906 173.039062 188.457031 168.597656 188.878906 164.171875 L 189.539062 157.3125 C 189.671875 155.84375 189.769531 154.371094 189.847656 152.902344 C 189.828125 152.757812 189.804688 152.617188 189.78125 152.476562 C 189.503906 151.042969 188.597656 148.304688 188.59375 148.292969 C 188.511719 148.085938 188.429688 147.878906 188.335938 147.679688 L 188.253906 147.519531 L 183.296875 148.460938 C 182.992188 148.515625 182.6875 148.566406 182.382812 148.613281 C 182.136719 148.652344 181.890625 148.683594 181.644531 148.714844 C 181.3125 148.753906 180.976562 148.789062 180.644531 148.816406 C 180.304688 148.84375 179.964844 148.867188 179.625 148.878906 C 179.582031 148.882812 179.535156 148.882812 179.488281 148.886719 C 167.46875 149.300781 156.609375 140.917969 154.292969 128.75 L 153.230469 123.175781 L 158.816406 122.113281 C 160.289062 121.835938 161.753906 121.691406 163.203125 121.675781 C 174.992188 121.542969 185.542969 129.851562 187.820312 141.820312 L 188.386719 144.789062 C 188.613281 145.054688 188.84375 145.320312 189.050781 145.605469 C 189.714844 146.421875 190.0625 147.027344 190.0625 147.027344 L 190.0625 147.039062 L 190.0625 147.027344 C 190.113281 145.882812 190.164062 144.738281 190.242188 143.59375 C 190.40625 141.304688 190.667969 139.023438 190.960938 136.742188 C 191.433594 133.148438 191.996094 129.558594 192.773438 125.992188 C 192.753906 124.480469 192.65625 122.964844 192.46875 121.453125 C 192.46875 121.457031 192.472656 121.457031 192.476562 121.460938 C 192.445312 121.230469 192.417969 121 192.382812 120.773438 C 192.328125 120.238281 192.214844 119.714844 192.128906 119.183594 L 192.097656 118.992188 L 189.054688 118.707031 C 188.339844 118.640625 187.636719 118.539062 186.945312 118.402344 C 186.601562 118.335938 186.261719 118.257812 185.921875 118.171875 C 185.414062 118.046875 184.914062 117.902344 184.425781 117.738281 C 175.429688 114.757812 169.351562 105.886719 170.277344 96.0625 L 170.722656 91.320312 L 172.773438 91.511719 L 175.472656 91.765625 C 177.082031 91.917969 178.632812 92.246094 180.105469 92.734375 C 180.269531 92.789062 180.429688 92.84375 180.59375 92.902344 C 181.886719 93.367188 183.113281 93.953125 184.269531 94.648438 C 184.554688 94.824219 184.839844 95.003906 185.117188 95.191406 C 185.953125 95.75 186.746094 96.371094 187.488281 97.042969 C 187.734375 97.265625 187.976562 97.496094 188.214844 97.730469 C 192.460938 101.957031 194.859375 107.980469 194.253906 114.410156 L 193.929688 117.859375 L 193.882812 118.324219 L 194.007812 118.71875 C 194.121094 119.089844 194.25 119.464844 194.363281 119.839844 C 194.371094 119.8125 194.378906 119.78125 194.390625 119.753906 L 194.910156 118.085938 L 195.5 116.429688 L 196.070312 114.839844 C 196.25 114.320312 196.453125 113.808594 196.621094 113.285156 L 197.113281 111.714844 C 197.28125 111.191406 197.40625 110.65625 197.554688 110.128906 C 198.683594 105.882812 199.234375 101.472656 199.132812 97.046875 C 199.125 96.753906 199.117188 96.460938 199.105469 96.167969 C 199.101562 96.121094 199.101562 96.070312 199.097656 96.023438 C 199.085938 95.769531 199.074219 95.511719 199.058594 95.257812 C 199.058594 95.242188 199.058594 95.222656 199.054688 95.207031 C 198.945312 93.421875 198.726562 91.640625 198.421875 89.867188 L 198.425781 89.863281 C 198.425781 89.863281 198.425781 89.867188 198.425781 89.867188 C 198.339844 89.359375 198.246094 88.855469 198.144531 88.355469 L 195.957031 87.683594 C 187.9375 85.226562 183.214844 77.121094 184.820312 69.078125 C 184.929688 68.542969 185.0625 68.007812 185.226562 67.472656 L 186.316406 63.929688 L 187.847656 64.398438 L 188.042969 64.460938 L 189.867188 65.019531 C 192.539062 65.839844 194.84375 67.285156 196.671875 69.148438 C 200.695312 73.246094 202.398438 79.359375 200.59375 85.230469 L 199.800781 87.804688 L 199.742188 88.003906 C 200.316406 90.132812 200.777344 92.300781 201.097656 94.5 C 201.101562 94.53125 201.105469 94.558594 201.109375 94.589844 C 201.15625 94.914062 201.199219 95.242188 201.238281 95.570312 C 201.25 95.65625 201.261719 95.738281 201.269531 95.824219 C 201.3125 96.175781 201.351562 96.527344 201.386719 96.882812 L 201.382812 96.695312 C 201.335938 86.988281 209.175781 79.078125 218.898438 79.027344 L 221.1875 79.015625 L 222.929688 79.007812 L 222.949219 83.035156 C 223 92.742188 215.160156 100.652344 205.4375 100.703125 L 201.886719 100.71875 L 201.632812 101.492188 C 201.628906 101.507812 201.625 101.527344 201.617188 101.542969 C 201.628906 104.648438 201.359375 107.765625 200.804688 110.835938 C 200.691406 111.410156 200.609375 111.988281 200.476562 112.558594 L 200.09375 114.269531 C 199.96875 114.839844 199.800781 115.402344 199.65625 115.96875 L 199.21875 117.621094 L 198.796875 119.210938 L 198.433594 120.820312 C 198.238281 121.613281 198.09375 122.421875 197.941406 123.226562 C 198.203125 122.9375 198.472656 122.65625 198.730469 122.367188 L 199.296875 121.75 C 199.488281 121.546875 199.691406 121.355469 199.886719 121.15625 C 200.121094 120.925781 200.347656 120.695312 200.578125 120.464844 L 201.25 117.96875 C 203.773438 108.613281 212.296875 102.472656 221.570312 102.574219 C 223.285156 102.59375 225.03125 102.824219 226.765625 103.289062 L 231.371094 104.527344 L 230.132812 109.128906 C 227.613281 118.484375 219.085938 124.625 209.8125 124.523438 C 208.097656 124.503906 206.355469 124.273438 204.621094 123.808594 L 200.824219 122.785156 C 200.785156 122.835938 200.746094 122.886719 200.710938 122.933594 L 200.488281 123.253906 L 200.25 123.597656 C 200.058594 123.878906 199.859375 124.152344 199.667969 124.433594 C 199.554688 124.59375 199.449219 124.757812 199.347656 124.925781 C 199.015625 125.433594 198.699219 125.949219 198.390625 126.472656 C 198.082031 126.992188 197.789062 127.519531 197.507812 128.054688 C 197.324219 128.394531 197.148438 128.738281 196.976562 129.085938 C 196.597656 131.800781 196.304688 134.539062 196.074219 137.285156 C 195.878906 139.507812 195.769531 141.742188 195.601562 143.96875 C 195.523438 145.171875 195.429688 146.375 195.34375 147.578125 C 195.707031 147.242188 196.070312 146.910156 196.445312 146.585938 C 197.066406 146.039062 197.707031 145.515625 198.363281 145.019531 L 199.195312 142.722656 C 202.980469 132.285156 213.058594 125.933594 223.609375 126.398438 C 223.644531 126.402344 223.683594 126.402344 223.722656 126.40625 C 224.070312 126.421875 224.417969 126.445312 224.769531 126.480469 C 224.847656 126.488281 224.925781 126.496094 225.003906 126.503906 C 226.996094 126.703125 228.996094 127.148438 230.964844 127.863281 L 234.003906 128.960938 Z M 236.3125 129.792969 " fill-opacity="1" fill-rule="nonzero"/></g><g clip-path="url(#24230dba11)"><path fill="#004aad" d="M 152.8125 211.3125 C 152.011719 211.105469 152.355469 209.863281 153.15625 210.074219 C 154.566406 210.4375 155.996094 210.734375 157.414062 211.058594 C 158.839844 211.390625 160.292969 211.527344 161.71875 211.835938 C 163.085938 212.136719 164.371094 212.714844 165.742188 213.007812 C 167.164062 213.308594 168.628906 213.375 170.066406 213.585938 C 172.609375 213.960938 175.152344 214.332031 177.695312 214.699219 C 178.988281 214.882812 180.273438 214.894531 181.574219 214.898438 C 182.855469 214.898438 184.136719 214.988281 185.421875 215.007812 C 187.976562 215.050781 190.550781 215.242188 193.105469 215.105469 C 195.667969 214.96875 198.226562 214.832031 200.789062 214.683594 C 202.105469 214.605469 203.425781 214.667969 204.742188 214.558594 C 205.984375 214.453125 207.222656 214.304688 208.460938 214.152344 C 211.007812 213.847656 213.550781 213.421875 216.050781 212.847656 C 217.246094 212.570312 218.429688 212.367188 219.65625 212.277344 C 220.921875 212.183594 222.140625 212.015625 223.386719 211.757812 C 224.617188 211.5 225.871094 211.289062 227.082031 210.9375 C 228.246094 210.601562 229.363281 210.125 230.542969 209.839844 C 231.351562 209.644531 231.691406 210.882812 230.886719 211.078125 C 229.554688 211.402344 228.300781 211.972656 226.96875 212.300781 C 225.566406 212.648438 224.136719 212.917969 222.71875 213.203125 C 221.34375 213.476562 219.957031 213.492188 218.570312 213.660156 C 217.179688 213.832031 215.832031 214.25 214.457031 214.511719 C 211.929688 215 209.363281 215.351562 206.800781 215.628906 C 204.214844 215.914062 201.621094 215.941406 199.019531 216.078125 C 197.742188 216.144531 196.460938 216.171875 195.183594 216.253906 C 193.867188 216.339844 192.558594 216.441406 191.242188 216.433594 C 188.613281 216.414062 185.964844 216.363281 183.34375 216.230469 C 182.058594 216.164062 180.773438 216.21875 179.488281 216.160156 C 178.21875 216.105469 176.960938 215.878906 175.707031 215.675781 C 173.097656 215.257812 170.460938 214.898438 167.835938 214.601562 C 166.589844 214.457031 165.359375 214.289062 164.160156 213.914062 C 162.964844 213.539062 161.804688 213.140625 160.566406 212.921875 C 157.964844 212.460938 155.375 211.976562 152.8125 211.3125 Z M 160.457031 128.457031 C 161.941406 129.347656 163.230469 130.515625 164.734375 131.382812 C 166.273438 132.269531 167.84375 133.015625 169.21875 134.15625 C 170.511719 135.222656 171.78125 136.246094 173.195312 137.15625 C 174.710938 138.136719 176.097656 139.230469 177.476562 140.398438 C 179.007812 141.703125 180.683594 142.828125 182.199219 144.144531 C 182.667969 144.550781 183.351562 143.871094 182.882812 143.460938 C 181.542969 142.300781 180.058594 141.324219 178.703125 140.179688 C 177.335938 139.027344 175.996094 137.847656 174.5 136.859375 C 173.027344 135.882812 171.613281 134.914062 170.261719 133.773438 C 168.933594 132.652344 167.519531 131.800781 165.992188 130.976562 C 164.199219 130.007812 162.683594 128.667969 160.945312 127.625 C 160.410156 127.304688 159.925781 128.136719 160.457031 128.457031 Z M 202.738281 145.152344 C 204.261719 144.136719 205.890625 143.28125 207.4375 142.300781 C 209 141.3125 210.605469 140.414062 212.246094 139.5625 C 213.105469 139.117188 213.964844 138.707031 214.878906 138.386719 C 215.726562 138.09375 216.578125 137.824219 217.402344 137.46875 C 218.246094 137.101562 219.0625 136.683594 219.894531 136.308594 C 220.777344 135.910156 221.691406 135.585938 222.597656 135.242188 C 224.628906 134.476562 226.703125 133.875 228.796875 133.308594 C 229.394531 133.148438 229.140625 132.214844 228.539062 132.378906 C 224.84375 133.375 221.273438 134.597656 217.808594 136.226562 C 216.140625 137.011719 214.335938 137.445312 212.679688 138.261719 C 210.957031 139.113281 209.246094 140.023438 207.617188 141.046875 C 205.84375 142.160156 203.992188 143.160156 202.25 144.320312 C 201.734375 144.664062 202.21875 145.5 202.738281 145.152344 Z M 175.820312 97.671875 C 177.148438 98.867188 178.511719 100.011719 179.738281 101.316406 C 180.988281 102.648438 182.164062 104.035156 183.453125 105.332031 C 184.074219 105.953125 184.675781 106.589844 185.195312 107.304688 C 185.714844 108.023438 186.175781 108.785156 186.65625 109.53125 C 187.636719 111.050781 188.820312 112.425781 189.78125 113.957031 C 190.113281 114.480469 190.945312 113.996094 190.617188 113.46875 C 189.636719 111.910156 188.433594 110.511719 187.4375 108.960938 C 186.476562 107.464844 185.523438 106.050781 184.269531 104.78125 C 182.988281 103.488281 181.804688 102.117188 180.5625 100.785156 C 179.292969 99.425781 177.882812 98.230469 176.5 96.988281 C 176.039062 96.574219 175.355469 97.253906 175.820312 97.671875 Z M 204.238281 118.941406 C 205.886719 117.710938 207.566406 116.527344 209.386719 115.566406 C 210.226562 115.121094 211.078125 114.699219 211.878906 114.183594 C 212.679688 113.664062 213.441406 113.082031 214.292969 112.644531 C 216.089844 111.71875 218.03125 110.867188 220.011719 110.445312 C 222.035156 110.019531 223.953125 109.296875 225.957031 108.796875 C 226.558594 108.648438 226.300781 107.71875 225.699219 107.867188 C 223.699219 108.367188 221.777344 109.089844 219.757812 109.515625 C 217.746094 109.941406 215.808594 110.828125 213.972656 111.730469 C 213.113281 112.152344 212.339844 112.722656 211.546875 113.25 C 210.726562 113.789062 209.855469 114.230469 208.984375 114.6875 C 207.132812 115.664062 205.425781 116.859375 203.753906 118.109375 C 203.261719 118.476562 203.742188 119.3125 204.238281 118.941406 Z M 204.238281 95.945312 C 204.925781 94.9375 205.800781 94.089844 206.691406 93.261719 C 207.589844 92.4375 208.464844 91.589844 209.363281 90.765625 C 211.300781 88.976562 213.53125 87.589844 215.738281 86.167969 C 216.261719 85.832031 215.777344 84.996094 215.253906 85.335938 C 212.976562 86.804688 210.675781 88.238281 208.679688 90.082031 C 207.761719 90.929688 206.859375 91.792969 205.941406 92.644531 C 205.011719 93.507812 204.121094 94.40625 203.40625 95.460938 C 203.054688 95.976562 203.890625 96.457031 204.238281 95.945312 Z M 190.121094 71.15625 C 190.914062 72.144531 191.847656 73.027344 192.539062 74.097656 C 193.28125 75.246094 193.980469 76.445312 194.5625 77.683594 C 195.121094 78.863281 195.375 80.15625 195.804688 81.382812 C 196.246094 82.648438 196.820312 83.863281 197.136719 85.175781 C 197.28125 85.777344 198.210938 85.523438 198.066406 84.917969 C 197.746094 83.578125 197.148438 82.335938 196.703125 81.035156 C 196.265625 79.753906 195.976562 78.429688 195.398438 77.199219 C 194.804688 75.933594 194.09375 74.699219 193.324219 73.535156 C 192.59375 72.429688 191.628906 71.503906 190.800781 70.472656 C 190.414062 69.988281 189.734375 70.675781 190.121094 71.15625 Z M 190.121094 71.15625 " fill-opacity="1" fill-rule="nonzero"/></g><g clip-path="url(#3f50a171ae)"><path fill="#00bf63" d="M 190.957031 228.296875 C 183.171875 221.480469 175.804688 214.074219 168.519531 206.632812 C 161.242188 199.171875 154.089844 191.578125 147.027344 183.902344 C 153.730469 191.890625 160.53125 199.804688 167.46875 207.597656 C 174.425781 215.386719 181.4375 223.113281 189.035156 230.40625 C 189.046875 230.417969 189.066406 230.433594 189.082031 230.449219 C 189.675781 230.96875 190.578125 230.910156 191.101562 230.320312 C 191.621094 229.730469 191.566406 228.832031 190.972656 228.3125 L 190.957031 228.296875 " fill-opacity="1" fill-rule="nonzero"/></g><g clip-path="url(#0e24a5ed0a)"><path fill="#00bf63" d="M 188.984375 136.546875 L 188.296875 240.425781 C 188.28125 242.871094 190.257812 244.867188 192.71875 244.882812 L 195.664062 244.902344 C 198.21875 244.917969 200.265625 242.796875 200.140625 240.257812 L 195.035156 136.585938 L 188.984375 136.546875 " fill-opacity="1" fill-rule="nonzero"/></g><g fill="#1a8604" fill-opacity="1"><g transform="translate(161.33749, 271.675235)"><g><path d="M 15.53125 -16.515625 L 15.53125 0 L 12.65625 0 L 12.65625 -6.96875 L 12.75 -9.71875 L 11.921875 -8.453125 L 8.734375 -4.703125 L 5.546875 -8.453125 L 4.71875 -9.71875 L 4.84375 -6.96875 L 4.84375 0 L 1.953125 0 L 1.953125 -16.515625 L 2.1875 -16.515625 L 8.765625 -8.765625 L 15.28125 -16.515625 Z M 15.53125 -16.515625 "/></g></g></g><g fill="#1a8604" fill-opacity="1"><g transform="translate(185.336971, 271.675235)"><g><path d="M 5.921875 0.25 C 5.191406 0.25 4.503906 0.164062 3.859375 0 C 3.222656 -0.164062 2.664062 -0.382812 2.1875 -0.65625 C 1.707031 -0.9375 1.328125 -1.222656 1.046875 -1.515625 L 2.234375 -3.953125 C 2.410156 -3.722656 2.679688 -3.472656 3.046875 -3.203125 C 3.410156 -2.941406 3.828125 -2.71875 4.296875 -2.53125 C 4.773438 -2.351562 5.242188 -2.265625 5.703125 -2.265625 C 6.316406 -2.265625 6.832031 -2.429688 7.25 -2.765625 C 7.664062 -3.097656 7.875 -3.570312 7.875 -4.1875 C 7.875 -4.582031 7.773438 -4.925781 7.578125 -5.21875 C 7.390625 -5.507812 7.140625 -5.769531 6.828125 -6 C 6.515625 -6.226562 6.03125 -6.539062 5.375 -6.9375 C 4.488281 -7.488281 3.789062 -7.953125 3.28125 -8.328125 C 2.78125 -8.710938 2.34375 -9.21875 1.96875 -9.84375 C 1.601562 -10.46875 1.421875 -11.222656 1.421875 -12.109375 C 1.421875 -12.972656 1.601562 -13.738281 1.96875 -14.40625 C 2.34375 -15.070312 2.890625 -15.585938 3.609375 -15.953125 C 4.328125 -16.328125 5.195312 -16.515625 6.21875 -16.515625 C 7.875 -16.515625 9.253906 -16.007812 10.359375 -15 L 9.0625 -12.625 C 8.925781 -12.8125 8.726562 -13.015625 8.46875 -13.234375 C 8.207031 -13.460938 7.890625 -13.65625 7.515625 -13.8125 C 7.140625 -13.96875 6.75 -14.046875 6.34375 -14.046875 C 5.738281 -14.046875 5.269531 -13.875 4.9375 -13.53125 C 4.613281 -13.1875 4.453125 -12.753906 4.453125 -12.234375 C 4.453125 -11.835938 4.550781 -11.484375 4.75 -11.171875 C 4.945312 -10.867188 5.207031 -10.597656 5.53125 -10.359375 C 5.851562 -10.117188 6.285156 -9.832031 6.828125 -9.5 C 7.816406 -8.914062 8.566406 -8.425781 9.078125 -8.03125 C 9.597656 -7.632812 10.035156 -7.128906 10.390625 -6.515625 C 10.742188 -5.910156 10.921875 -5.164062 10.921875 -4.28125 C 10.921875 -3.34375 10.71875 -2.53125 10.3125 -1.84375 C 9.914062 -1.164062 9.335938 -0.644531 8.578125 -0.28125 C 7.828125 0.0703125 6.941406 0.25 5.921875 0.25 Z M 5.921875 0.25 "/></g></g></g><g fill="#1a8604" fill-opacity="1"><g transform="translate(203.582099, 271.675235)"><g><path d="M 6.3125 -16.234375 C 8.144531 -16.234375 9.597656 -15.800781 10.671875 -14.9375 C 11.742188 -14.070312 12.28125 -12.609375 12.28125 -10.546875 C 12.28125 -9.429688 12.066406 -8.40625 11.640625 -7.46875 C 11.222656 -6.53125 10.570312 -5.773438 9.6875 -5.203125 C 8.8125 -4.640625 7.71875 -4.359375 6.40625 -4.359375 L 4.96875 -4.359375 L 4.96875 0 L 1.953125 0 L 1.953125 -16.234375 Z M 6.203125 -6.796875 C 7.210938 -6.796875 7.972656 -7.097656 8.484375 -7.703125 C 9.003906 -8.316406 9.265625 -9.210938 9.265625 -10.390625 C 9.265625 -11.203125 9.164062 -11.863281 8.96875 -12.375 C 8.769531 -12.882812 8.4375 -13.265625 7.96875 -13.515625 C 7.507812 -13.765625 6.894531 -13.890625 6.125 -13.890625 L 4.96875 -13.890625 L 4.96875 -6.796875 Z M 6.203125 -6.796875 "/></g></g></g><g fill="#1a8604" fill-opacity="1"><g transform="translate(222.825767, 271.675235)"><g/></g></g><g fill="#1a8604" fill-opacity="1"><g transform="translate(128.032805, 294.925233)"><g><path d="M 10.828125 -2.625 L 10.828125 0 L 1.890625 0 L 1.890625 -16.234375 L 10.359375 -16.234375 L 10.359375 -13.703125 L 4.796875 -13.703125 L 4.796875 -9.90625 L 9.21875 -9.90625 L 9.21875 -7.4375 L 4.796875 -7.4375 L 4.796875 -2.625 Z M 10.828125 -2.625 "/></g></g></g><g fill="#1a8604" fill-opacity="1"><g transform="translate(146.324533, 294.925233)"><g><path d="M 5.609375 0.328125 C 4.679688 0.328125 3.867188 0.078125 3.171875 -0.421875 C 2.472656 -0.929688 1.9375 -1.644531 1.5625 -2.5625 C 1.1875 -3.488281 1 -4.5625 1 -5.78125 C 1 -7.71875 1.390625 -9.21875 2.171875 -10.28125 C 2.960938 -11.34375 4.125 -11.875 5.65625 -11.875 C 6.457031 -11.875 7.128906 -11.675781 7.671875 -11.28125 C 8.210938 -10.882812 8.566406 -10.320312 8.734375 -9.59375 L 8.53125 -11.296875 L 8.53125 -17.703125 L 11.28125 -17.703125 L 11.28125 0 L 8.734375 0 L 8.734375 -2.375 C 8.515625 -1.539062 8.132812 -0.878906 7.59375 -0.390625 C 7.0625 0.0859375 6.398438 0.328125 5.609375 0.328125 Z M 6.296875 -1.984375 C 6.679688 -1.984375 7.035156 -2.113281 7.359375 -2.375 C 7.691406 -2.632812 7.957031 -3.046875 8.15625 -3.609375 C 8.351562 -4.179688 8.453125 -4.890625 8.453125 -5.734375 C 8.453125 -6.960938 8.273438 -7.898438 7.921875 -8.546875 C 7.578125 -9.203125 7.054688 -9.53125 6.359375 -9.53125 C 5.953125 -9.53125 5.570312 -9.410156 5.21875 -9.171875 C 4.863281 -8.929688 4.570312 -8.53125 4.34375 -7.96875 C 4.113281 -7.40625 4 -6.675781 4 -5.78125 C 4 -4.945312 4.097656 -4.242188 4.296875 -3.671875 C 4.492188 -3.109375 4.765625 -2.6875 5.109375 -2.40625 C 5.460938 -2.125 5.859375 -1.984375 6.296875 -1.984375 Z M 6.296875 -1.984375 "/></g></g></g><g fill="#1a8604" fill-opacity="1"><g transform="translate(165.920888, 294.925233)"><g><path d="M 10.921875 -11.609375 L 10.921875 0 L 8.296875 0 L 8.234375 -1.5 C 7.890625 -0.96875 7.46875 -0.535156 6.96875 -0.203125 C 6.46875 0.117188 5.832031 0.28125 5.0625 0.28125 C 3.90625 0.28125 3.039062 -0.0820312 2.46875 -0.8125 C 1.90625 -1.539062 1.625 -2.582031 1.625 -3.9375 L 1.625 -11.609375 L 4.546875 -11.609375 L 4.546875 -4.1875 C 4.546875 -3.519531 4.664062 -2.992188 4.90625 -2.609375 C 5.15625 -2.222656 5.546875 -2.03125 6.078125 -2.03125 C 6.441406 -2.03125 6.769531 -2.117188 7.0625 -2.296875 C 7.351562 -2.484375 7.582031 -2.738281 7.75 -3.0625 C 7.925781 -3.394531 8.015625 -3.769531 8.015625 -4.1875 L 8.015625 -11.609375 Z M 10.921875 -11.609375 "/></g></g></g><g fill="#1a8604" fill-opacity="1"><g transform="translate(185.074595, 294.925233)"><g/></g></g><g fill="#1a8604" fill-opacity="1"><g transform="translate(196.004491, 294.925233)"><g><path d="M 6.3125 -16.234375 C 8.144531 -16.234375 9.597656 -15.800781 10.671875 -14.9375 C 11.742188 -14.070312 12.28125 -12.609375 12.28125 -10.546875 C 12.28125 -9.429688 12.066406 -8.40625 11.640625 -7.46875 C 11.222656 -6.53125 10.570312 -5.773438 9.6875 -5.203125 C 8.8125 -4.640625 7.71875 -4.359375 6.40625 -4.359375 L 4.96875 -4.359375 L 4.96875 0 L 1.953125 0 L 1.953125 -16.234375 Z M 6.203125 -6.796875 C 7.210938 -6.796875 7.972656 -7.097656 8.484375 -7.703125 C 9.003906 -8.316406 9.265625 -9.210938 9.265625 -10.390625 C 9.265625 -11.203125 9.164062 -11.863281 8.96875 -12.375 C 8.769531 -12.882812 8.4375 -13.265625 7.96875 -13.515625 C 7.507812 -13.765625 6.894531 -13.890625 6.125 -13.890625 L 4.96875 -13.890625 L 4.96875 -6.796875 Z M 6.203125 -6.796875 "/></g></g></g><g fill="#1a8604" fill-opacity="1"><g transform="translate(215.251393, 294.925233)"><g><path d="M 4.046875 0.328125 C 3.359375 0.328125 2.773438 0.171875 2.296875 -0.140625 C 1.828125 -0.453125 1.472656 -0.867188 1.234375 -1.390625 C 1.003906 -1.921875 0.890625 -2.515625 0.890625 -3.171875 C 0.890625 -3.734375 1.078125 -4.296875 1.453125 -4.859375 C 1.828125 -5.421875 2.492188 -5.898438 3.453125 -6.296875 C 4.421875 -6.691406 5.722656 -6.890625 7.359375 -6.890625 L 7.359375 -7.4375 C 7.359375 -8.070312 7.203125 -8.5625 6.890625 -8.90625 C 6.585938 -9.257812 6.050781 -9.4375 5.28125 -9.4375 C 4.675781 -9.4375 4.082031 -9.332031 3.5 -9.125 C 2.925781 -8.914062 2.503906 -8.660156 2.234375 -8.359375 L 1.296875 -10.59375 C 1.828125 -10.957031 2.484375 -11.257812 3.265625 -11.5 C 4.054688 -11.75 4.894531 -11.875 5.78125 -11.875 C 6.882812 -11.875 7.757812 -11.703125 8.40625 -11.359375 C 9.0625 -11.023438 9.519531 -10.546875 9.78125 -9.921875 C 10.050781 -9.304688 10.1875 -8.539062 10.1875 -7.625 L 10.1875 0 L 7.6875 0 L 7.484375 -1.65625 C 7.066406 -0.988281 6.578125 -0.488281 6.015625 -0.15625 C 5.453125 0.164062 4.796875 0.328125 4.046875 0.328125 Z M 5.28125 -1.90625 C 5.644531 -1.90625 6.023438 -2.046875 6.421875 -2.328125 C 6.816406 -2.617188 7.128906 -2.984375 7.359375 -3.421875 L 7.359375 -5.078125 C 7.253906 -5.097656 7.066406 -5.109375 6.796875 -5.109375 C 6.015625 -5.109375 5.316406 -4.976562 4.703125 -4.71875 C 4.085938 -4.457031 3.78125 -4.035156 3.78125 -3.453125 C 3.78125 -2.898438 3.898438 -2.503906 4.140625 -2.265625 C 4.390625 -2.023438 4.769531 -1.90625 5.28125 -1.90625 Z M 5.28125 -1.90625 "/></g></g></g><g fill="#1a8604" fill-opacity="1"><g transform="translate(233.333446, 294.925233)"><g><path d="M 1.609375 -11.609375 L 4.234375 -11.609375 L 4.375 -9.546875 C 4.625 -10.148438 5.015625 -10.664062 5.546875 -11.09375 C 6.085938 -11.519531 6.847656 -11.734375 7.828125 -11.734375 C 8.210938 -11.734375 8.570312 -11.675781 8.90625 -11.5625 L 8.25 -8.5 C 8.113281 -8.632812 7.953125 -8.726562 7.765625 -8.78125 C 7.585938 -8.84375 7.367188 -8.875 7.109375 -8.875 C 6.566406 -8.875 6.097656 -8.757812 5.703125 -8.53125 C 5.304688 -8.300781 5.007812 -8.035156 4.8125 -7.734375 C 4.613281 -7.429688 4.515625 -7.179688 4.515625 -6.984375 L 4.515625 0 L 1.609375 0 Z M 1.609375 -11.609375 "/></g></g></g><g fill="#1a8604" fill-opacity="1"><g transform="translate(248.736357, 294.925233)"><g><path d="M 1.8125 -17.703125 L 4.5625 -17.703125 L 4.5625 -9.015625 L 4.46875 -6.296875 L 8.03125 -11.609375 L 11.34375 -11.609375 L 7.296875 -6.265625 L 11.734375 0 L 8.21875 0 L 4.46875 -5.609375 L 4.5625 -2.765625 L 4.5625 0 L 1.8125 0 Z M 1.8125 -17.703125 "/></g></g></g></svg>