<?xml version="1.0" encoding="UTF-8"?><svg id="Layer_1" xmlns="http://www.w3.org/2000/svg" viewBox="0 0 1276.54 362.71"><defs><style>.cls-1{fill:#fff;}</style></defs><g><path class="cls-1" d="M451.1,156.7V59.68h62.31v14.98h-44.65v23.94h39.76v14.69h-39.76v28.43h48.02v14.98h-65.67Z"/><path class="cls-1" d="M604.75,156.7c-2.72-5.08-6.12-10.69-10.25-16.82-4.1-6.12-8.41-12.02-12.9-17.71-1.86,2.22-3.88,4.9-6.06,7.98-2.18,3.08-4.37,6.25-6.53,9.45-2.19,3.22-4.21,6.33-6.06,9.33-1.86,3-3.35,5.59-4.47,7.78h-20.16c4.31-7.76,9.27-15.71,14.88-23.9,5.63-8.16,11.73-16.73,18.33-25.67l-31.8-47.45h21l21.23,31.86,21.33-31.86h20.16l-31.43,46.94c7.26,9.47,13.69,18.45,19.29,26.9,5.57,8.47,10.28,16.2,14.1,23.18h-20.65Z"/><path class="cls-1" d="M693.3,158.8c-7.26,0-13.82-1.12-19.59-3.37-5.8-2.25-10.69-5.53-14.69-9.86-4.02-4.35-7.1-9.65-9.25-15.9-2.14-6.24-3.22-13.45-3.22-21.57s1.25-15.31,3.71-21.55c2.47-6.24,5.86-11.55,10.14-15.9,4.3-4.33,9.33-7.63,15.12-9.86,5.8-2.24,12-3.37,18.63-3.37,4,0,7.63,.31,10.92,.92,3.27,.59,6.1,1.29,8.53,2.02,2.43,.76,4.43,1.55,6.02,2.39,1.59,.84,2.72,1.45,3.37,1.82l-5.18,14.43c-2.25-1.41-5.45-2.73-9.59-4-4.16-1.27-8.65-1.9-13.51-1.9-4.2,0-8.12,.73-11.75,2.18-3.65,1.45-6.79,3.61-9.45,6.51-2.67,2.9-4.76,6.53-6.25,10.92-1.49,4.39-2.22,9.47-2.22,15.26,0,5.12,.57,9.84,1.73,14.14,1.16,4.28,2.96,8,5.39,11.12,2.43,3.12,5.51,5.55,9.24,7.29,3.74,1.71,8.22,2.59,13.45,2.59,6.25,0,11.35-.63,15.27-1.9,3.92-1.27,6.94-2.45,9.1-3.57l4.75,14.43c-1.12,.73-2.65,1.49-4.55,2.22-1.92,.75-4.18,1.47-6.8,2.18-2.61,.7-5.55,1.25-8.82,1.67-3.27,.43-6.78,.63-10.51,.63Z"/><path class="cls-1" d="M813.3,59.68h17.63v97.02h-17.63v-42.98h-42.14v42.98h-17.65V59.68h17.65v38.78h42.14V59.68Z"/><path class="cls-1" d="M932.75,156.7c-1.31-3.82-2.7-7.61-4.08-11.35-1.39-3.73-2.78-7.55-4.08-11.47h-40.98c-1.31,3.92-2.65,7.78-4,11.55-1.35,3.77-2.69,7.53-4,11.26h-18.33c3.63-10.37,7.06-19.92,10.33-28.69,3.26-8.78,6.45-17.08,9.59-24.92,3.14-7.86,6.2-15.31,9.31-22.41,3.06-7.1,6.24-14.1,9.51-21h16.82c3.31,6.9,6.45,13.9,9.55,21,3.06,7.1,6.16,14.55,9.31,22.41,3.14,7.84,6.37,16.14,9.67,24.92,3.31,8.77,6.77,18.33,10.41,28.69h-19.02Zm-28.65-78.27c-2.12,4.96-4.61,10.98-7.35,18.06-2.73,7.1-5.63,14.8-8.61,23.1h31.92c-2.98-8.31-5.88-16.06-8.65-23.25-2.82-7.18-5.22-13.16-7.31-17.92Z"/><path class="cls-1" d="M1043.32,156.7c-3.18-5.33-6.69-11.04-10.61-17.14-3.92-6.12-8-12.29-12.2-18.49-4.2-6.2-8.49-12.22-12.82-18.06-4.33-5.84-8.49-11.08-12.41-15.76v69.45h-17.35V59.68h14.45c3.71,3.92,7.75,8.55,12.04,13.92,4.29,5.37,8.61,10.96,12.94,16.73,4.33,5.8,8.53,11.61,12.61,17.43,4.04,5.84,7.63,11.29,10.86,16.33V59.68h17.47v97.02h-14.98Z"/><path class="cls-1" d="M1140.87,72.99c-9.96,0-17.59,3.1-22.9,9.31-5.22,6.2-7.88,14.82-7.88,25.82,0,5.25,.65,10.02,1.88,14.37,1.27,4.33,3.14,8.04,5.63,11.12,2.45,3.08,5.55,5.49,9.22,7.2,3.67,1.74,8,2.59,12.94,2.59,3.1,0,5.75-.1,7.96-.35,2.29-.22,4.04-.53,5.35-.9v-34.88h17.63v46.63c-2.41,.94-6.53,1.96-12.33,3.08-5.75,1.12-12.45,1.67-20,1.67-7.02,0-13.39-1.12-19.18-3.37-5.8-2.23-10.73-5.49-14.78-9.8-4.04-4.29-7.18-9.57-9.43-15.82-2.29-6.24-3.39-13.45-3.39-21.57s1.27-15.31,3.71-21.55c2.45-6.24,5.84-11.55,10.12-15.9,4.33-4.33,9.39-7.63,15.14-9.86,5.8-2.24,11.96-3.37,18.49-3.37,4.49,0,8.49,.31,11.96,.92,3.51,.59,6.53,1.29,9.06,2.02,2.49,.76,4.57,1.55,6.2,2.39,1.63,.84,2.78,1.45,3.43,1.82l-5.31,14.43c-2.82-1.69-6.29-3.1-10.41-4.29-4.16-1.16-8.53-1.73-13.14-1.73Z"/><path class="cls-1" d="M1205.15,156.7V59.68h62.33v14.98h-44.69v23.94h39.79v14.69h-39.79v28.43h48.04v14.98h-65.67Z"/><path class="cls-1" d="M539.18,250.02c0,8.33-1.22,15.63-3.65,22-2.43,6.33-5.71,11.63-9.88,15.88-4.14,4.24-8.98,7.43-14.49,9.59-5.49,2.12-11.33,3.22-17.49,3.22s-12-1.1-17.51-3.22c-5.51-2.16-10.33-5.35-14.49-9.59-4.14-4.25-7.43-9.55-9.86-15.88-2.43-6.37-3.65-13.67-3.65-22s1.22-15.59,3.65-21.92c2.43-6.29,5.71-11.55,9.86-15.8,4.16-4.25,8.98-7.47,14.49-9.59,5.51-2.16,11.35-3.22,17.51-3.22s12,1.06,17.49,3.22c5.51,2.12,10.35,5.35,14.49,9.59,4.16,4.24,7.45,9.51,9.88,15.8,2.43,6.33,3.65,13.59,3.65,21.92Zm-10.08,0c0-6.53-.86-12.41-2.53-17.55-1.67-5.18-4.06-9.59-7.14-13.27-3.08-3.63-6.79-6.41-11.12-8.33-4.35-1.92-9.22-2.86-14.63-2.86s-10.28,.94-14.63,2.86c-4.35,1.92-8.04,4.69-11.12,8.33-3.08,3.67-5.47,8.08-7.14,13.27-1.69,5.14-2.53,11.02-2.53,17.55s.84,12.41,2.53,17.55c1.67,5.18,4.06,9.59,7.14,13.26,3.08,3.63,6.77,6.41,11.12,8.37,4.35,1.96,9.22,2.94,14.63,2.94s10.29-.98,14.63-2.94c4.33-1.96,8.04-4.74,11.12-8.37,3.08-3.67,5.47-8.08,7.14-13.26,1.67-5.14,2.53-11.02,2.53-17.55Z"/><path class="cls-1" d="M563.93,298.59v-97.02h55.31v8.29h-45.77v34.12h40.59v8.29h-40.59v46.33h-9.53Z"/><path class="cls-1" d="M696.54,292.43c7.55,0,13.43-1.35,17.63-4.12,4.2-2.77,6.31-7.22,6.31-13.39,0-3.55-.69-6.53-2.04-8.94-1.35-2.37-3.14-4.37-5.39-6.04-2.24-1.63-4.79-3.02-7.69-4.16-2.9-1.18-5.94-2.41-9.1-3.71-4.02-1.55-7.61-3.18-10.78-4.86-3.18-1.67-5.88-3.55-8.12-5.67-2.25-2.08-3.96-4.49-5.12-7.18-1.16-2.69-1.73-5.88-1.73-9.51,0-8.33,2.73-14.61,8.25-18.9,5.51-4.33,13.16-6.45,22.96-6.45,2.61,0,5.18,.17,7.71,.53,2.51,.41,4.88,.9,7.06,1.47,2.2,.61,4.2,1.31,6.02,2.04,1.82,.78,3.35,1.55,4.55,2.41l-3.37,7.96c-2.7-1.88-5.98-3.35-9.86-4.49-3.88-1.1-8.06-1.67-12.53-1.67-3.08,0-5.9,.33-8.47,.9-2.57,.61-4.79,1.59-6.65,2.94-1.88,1.39-3.35,3.06-4.41,5.14-1.08,2.04-1.61,4.53-1.61,7.39,0,3.02,.55,5.51,1.67,7.59,1.12,2.04,2.69,3.79,4.69,5.31,2,1.51,4.37,2.86,7.08,4.04,2.69,1.22,5.63,2.49,8.82,3.8,3.82,1.59,7.43,3.18,10.84,4.77,3.41,1.59,6.39,3.43,8.9,5.59,2.53,2.16,4.53,4.77,6.02,7.84,1.49,3.06,2.25,6.86,2.25,11.35,0,8.77-3.06,15.35-9.18,19.71-6.1,4.41-14.39,6.61-24.84,6.61-3.73,0-7.14-.24-10.22-.69-3.08-.49-5.84-1.06-8.26-1.76-2.43-.69-4.47-1.43-6.16-2.16-1.67-.77-2.98-1.43-3.92-2l3.08-8.24c.94,.57,2.2,1.22,3.78,1.96,1.59,.73,3.47,1.47,5.61,2.16,2.14,.69,4.57,1.31,7.29,1.76,2.69,.49,5.67,.69,8.96,.69Z"/><path class="cls-1" d="M751.54,298.59v-97.02h56.02v8.29h-46.49v33.71h41.45v8.12h-41.45v38.65h50.12v8.25h-59.65Z"/><path class="cls-1" d="M897.44,230.71c0,7.27-1.92,13.02-5.71,17.22-3.84,4.16-8.9,7.23-15.14,9.1,1.51,1.84,3.43,4.37,5.8,7.55,2.41,3.14,4.86,6.65,7.35,10.41,2.53,3.8,4.98,7.75,7.43,11.84,2.41,4.12,4.49,8.04,6.16,11.76h-10.21c-1.96-3.71-4.08-7.47-6.41-11.18-2.29-3.76-4.61-7.35-6.98-10.86-2.37-3.51-4.69-6.73-6.94-9.71-2.2-3.02-4.2-5.63-5.88-7.84-2.98,.25-5.96,.41-8.94,.41h-15.69v39.18h-9.53v-95.18c3.37-.94,7.31-1.63,11.84-2.04,4.53-.41,8.73-.61,12.53-.61,13.35,0,23.39,2.49,30.16,7.55,6.78,5.02,10.16,12.49,10.16,22.41Zm-39.22-21.71c-3.55,0-6.61,.12-9.31,.37-2.65,.21-4.86,.41-6.63,.61v41.31h13.16c4.41,0,8.53-.21,12.45-.65,3.92-.41,7.31-1.35,10.25-2.78,2.9-1.47,5.18-3.51,6.82-6.24,1.71-2.69,2.53-6.37,2.53-11.06,0-4.29-.82-7.84-2.53-10.61-1.63-2.82-3.83-5.02-6.53-6.65-2.73-1.63-5.83-2.78-9.31-3.39-3.51-.61-7.14-.9-10.9-.9Z"/><path class="cls-1" d="M922.22,201.57c2.78,8.33,5.51,16.16,8.12,23.59,2.65,7.43,5.22,14.61,7.71,21.55,2.53,6.94,5.14,13.75,7.71,20.45,2.57,6.69,5.43,13.43,8.45,20.24,2.9-6.69,5.63-13.39,8.29-20.08,2.65-6.69,5.27-13.51,7.88-20.45,2.53-6.94,5.14-14.16,7.75-21.59,2.53-7.47,5.22-15.39,8.08-23.72h10.08c-4.33,12.29-8.16,23.02-11.59,32.25-3.43,9.22-6.65,17.59-9.55,25.06-2.94,7.47-5.67,14.37-8.37,20.65-2.61,6.33-5.43,12.65-8.33,19.06h-8.9c-2.86-6.45-5.63-12.86-8.37-19.14-2.7-6.29-5.55-13.18-8.53-20.61-2.94-7.47-6.12-15.84-9.55-25.06-3.43-9.22-7.26-19.96-11.51-32.2h10.61Z"/><path class="cls-1" d="M1013.64,201.57h9.51v97.02h-9.51v-97.02Z"/><path class="cls-1" d="M1092.17,300.71c-6.25,0-12.08-1.14-17.43-3.39-5.39-2.24-10.04-5.51-14-9.8-3.96-4.29-7.1-9.59-9.39-15.88-2.29-6.29-3.43-13.51-3.43-21.63s1.26-15.35,3.71-21.63c2.49-6.29,5.75-11.59,9.88-15.88,4.12-4.28,8.86-7.55,14.29-9.75,5.43-2.16,11.06-3.27,16.94-3.27,3.63,0,6.94,.21,9.96,.69,2.98,.45,5.59,1.06,7.84,1.76,2.2,.69,4.12,1.39,5.71,2.08,1.59,.69,2.82,1.35,3.63,1.92l-3.06,8.25c-2.33-1.39-5.31-2.77-8.9-4.12-3.59-1.35-8.08-2.04-13.39-2.04-6.08,0-11.35,1.02-15.88,3.06-4.53,2.08-8.33,4.98-11.39,8.69-3.1,3.76-5.39,8.16-6.94,13.31-1.55,5.14-2.33,10.82-2.33,17.06s.78,12.29,2.33,17.43c1.55,5.18,3.8,9.59,6.77,13.26,3.02,3.63,6.65,6.41,10.98,8.37,4.33,1.96,9.35,2.94,14.9,2.94,6.16,0,11.35-.57,15.47-1.71,4.2-1.18,7.35-2.37,9.47-3.59l2.65,8.12c-.61,.49-1.75,1.02-3.35,1.63-1.59,.57-3.59,1.22-6,1.88-2.45,.65-5.22,1.18-8.41,1.59-3.18,.45-6.73,.65-10.65,.65Z"/><path class="cls-1" d="M1140.62,298.59v-97.02h56v8.29h-46.49v33.71h41.47v8.12h-41.47v38.65h50.12v8.25h-59.63Z"/><path class="cls-1" d="M1242.66,292.43c7.55,0,13.47-1.35,17.67-4.12,4.16-2.77,6.29-7.22,6.29-13.39,0-3.55-.69-6.53-2.04-8.94-1.35-2.37-3.14-4.37-5.39-6.04-2.24-1.63-4.78-3.02-7.67-4.16-2.94-1.18-5.96-2.41-9.14-3.71-4-1.55-7.59-3.18-10.78-4.86-3.14-1.67-5.84-3.55-8.12-5.67-2.25-2.08-3.92-4.49-5.1-7.18-1.14-2.69-1.76-5.88-1.76-9.51,0-8.33,2.78-14.61,8.29-18.9,5.47-4.33,13.14-6.45,22.94-6.45,2.61,0,5.18,.17,7.71,.53,2.49,.41,4.86,.9,7.06,1.47,2.2,.61,4.2,1.31,6.04,2.04,1.8,.78,3.35,1.55,4.53,2.41l-3.39,7.96c-2.7-1.88-5.96-3.35-9.84-4.49-3.88-1.1-8.08-1.67-12.53-1.67-3.06,0-5.88,.33-8.45,.9-2.61,.61-4.82,1.59-6.69,2.94-1.84,1.39-3.31,3.06-4.37,5.14-1.1,2.04-1.63,4.53-1.63,7.39,0,3.02,.57,5.51,1.67,7.59,1.1,2.04,2.69,3.79,4.69,5.31,2,1.51,4.37,2.86,7.1,4.04,2.69,1.22,5.59,2.49,8.81,3.8,3.8,1.59,7.39,3.18,10.82,4.77,3.39,1.59,6.41,3.43,8.9,5.59,2.53,2.16,4.53,4.77,6.04,7.84,1.47,3.06,2.21,6.86,2.21,11.35,0,8.77-3.06,15.35-9.14,19.71-6.12,4.41-14.41,6.61-24.86,6.61-3.71,0-7.14-.24-10.25-.69-3.06-.49-5.84-1.06-8.24-1.76-2.41-.69-4.49-1.43-6.16-2.16-1.67-.77-2.98-1.43-3.92-2l3.1-8.24c.94,.57,2.16,1.22,3.75,1.96,1.59,.73,3.47,1.47,5.63,2.16,2.12,.69,4.53,1.31,7.26,1.76,2.69,.49,5.67,.69,8.94,.69Z"/></g><g><path class="cls-1" d="M281.34,0L124.45,156.89l15.58,15.58L281.34,31.16l50.21,50.21L81.38,331.57l-50.21-50.22,75.7-75.71-15.57-15.57L0,281.35l81.38,81.37L362.72,81.38,281.34,0Z"/><polygon class="cls-1" points="151.29 232.71 .02 81.47 81.46 .05 146.06 64.66 130.52 80.19 81.46 31.15 31.13 81.47 166.82 217.2 151.29 232.71"/><polygon class="cls-1" points="362.72 281.35 281.34 362.71 204.92 286.47 220.5 270.9 281.34 331.57 331.56 281.35 256.22 206 271.79 190.43 362.72 281.35"/><polygon class="cls-1" points="237.33 155.84 221.66 171.31 189.89 139.55 205.36 124.08 237.33 155.84"/><polygon class="cls-1" points="153.51 47.7 160.71 98.67 109.74 91.47 153.51 47.7"/><polygon class="cls-1" points="206.74 317.57 199.54 266.59 250.51 273.81 206.74 317.57"/></g></svg>