<?xml version="1.0" encoding="UTF-8"?><svg id="Layer_1" xmlns="http://www.w3.org/2000/svg" viewBox="0 0 362.72 362.71"><defs><style>.cls-1{fill:#fff;}</style></defs><path class="cls-1" d="M281.34,0L124.45,156.89l15.58,15.58L281.34,31.16l50.21,50.21L81.38,331.57l-50.21-50.22,75.7-75.71-15.57-15.57L0,281.35l81.38,81.37L362.72,81.38,281.34,0Z"/><polygon class="cls-1" points="151.29 232.71 .02 81.47 81.46 .05 146.06 64.66 130.52 80.19 81.46 31.15 31.13 81.47 166.82 217.2 151.29 232.71"/><polygon class="cls-1" points="362.72 281.35 281.34 362.71 204.92 286.47 220.5 270.9 281.34 331.57 331.56 281.35 256.22 206 271.79 190.43 362.72 281.35"/><polygon class="cls-1" points="237.33 155.84 221.66 171.31 189.89 139.55 205.36 124.08 237.33 155.84"/><polygon class="cls-1" points="153.51 47.7 160.71 98.67 109.74 91.47 153.51 47.7"/><polygon class="cls-1" points="206.74 317.57 199.54 266.59 250.51 273.81 206.74 317.57"/></svg>